<svg width="45" height="45" viewBox="0 0 80 80" fill="none" xmlns="http://www.w3.org/2000/svg">
<g filter="url(#filter0_di_2607_7)">
<circle cx="40" cy="37" r="30" fill="#386D9D"/>
<circle cx="40" cy="37" r="29.5" stroke="#44E2E2"/>
</g>
<g style="mix-blend-mode:overlay">
<path d="M53.7157 23.2856H48.4871V24.5885H47.1843V25.8914H45.8814V27.1942H44.57V28.5142H43.2585V29.8171H41.9557V31.1199H40.6528V32.4314H39.35V31.1199H38.0385V29.8171H36.7357V28.5142H35.4328V27.2028H34.1214V25.8999H32.8185V24.5971H31.5157V23.2856H26.2871V28.5142H27.59V29.8171H28.8928V31.1199H30.1957V32.4314H31.5157V33.7428H32.8185V35.0542H34.1214V36.3656H35.4328V37.6685H34.1214V38.9799H32.8185V36.4085H31.5157V40.2571H32.8185V42.8799H31.5157V44.1914H30.2043V45.4856H28.9014V46.7971H26.2871V50.7142H30.2043V48.1428H31.5157V46.7971H32.8185V45.4856H34.13V44.1828H36.7528V45.5028H43.2671V44.1828H45.89V45.4856H47.2014V46.7971H48.4871V48.1428H49.7985V50.7142H53.7157V46.7971H51.1443V45.4856H49.7985V44.1828H48.4871V42.8799H47.1843V40.2656H48.4871V36.3485H47.1843V38.9199H45.8814V37.6514H44.57V36.3485H45.8814V35.0371H47.1843V33.7342H48.4871V32.4314H49.7985V31.1199H51.1443V29.8171H52.4471V28.5142H53.7157V23.2856ZM39.35 44.1828H38.0471V42.8799H39.3585V41.5685H40.6614V42.8799H41.9728V44.1828H39.35Z" fill="white"/>
</g>
<defs>
<filter id="filter0_di_2607_7" x="0" y="0" width="80" height="80" filterUnits="userSpaceOnUse" color-interpolation-filters="sRGB">
<feFlood flood-opacity="0" result="BackgroundImageFix"/>
<feColorMatrix in="SourceAlpha" type="matrix" values="0 0 0 0 0 0 0 0 0 0 0 0 0 0 0 0 0 0 127 0" result="hardAlpha"/>
<feOffset dy="3"/>
<feGaussianBlur stdDeviation="5"/>
<feComposite in2="hardAlpha" operator="out"/>
<feColorMatrix type="matrix" values="0 0 0 0 0 0 0 0 0 0 0 0 0 0 0 0 0 0 1 0"/>
<feBlend mode="normal" in2="BackgroundImageFix" result="effect1_dropShadow_2607_7"/>
<feBlend mode="normal" in="SourceGraphic" in2="effect1_dropShadow_2607_7" result="shape"/>
<feColorMatrix in="SourceAlpha" type="matrix" values="0 0 0 0 0 0 0 0 0 0 0 0 0 0 0 0 0 0 127 0" result="hardAlpha"/>
<feOffset dx="2" dy="2"/>
<feGaussianBlur stdDeviation="2.5"/>
<feComposite in2="hardAlpha" operator="arithmetic" k2="-1" k3="1"/>
<feColorMatrix type="matrix" values="0 0 0 0 0.1425 0 0 0 0 0.181875 0 0 0 0 0.3 0 0 0 1 0"/>
<feBlend mode="normal" in2="shape" result="effect2_innerShadow_2607_7"/>
</filter>
</defs>
</svg>
