<svg xmlns="http://www.w3.org/2000/svg" width="60" height="60" viewBox="0 0 90 90" fill="none">
  <g filter="url(#filter0_di_1645_8618)">
    <circle cx="45" cy="42" r="35" fill="#783B28"/>
    <circle cx="45" cy="42" r="34.5" stroke="#FF7246"/>
  </g>
  <path fill-rule="evenodd" clip-rule="evenodd" d="M37.75 26V28.5833H53.25V26H37.75ZM53.25 28.5833V31.1667H55.8334V28.5833H53.25ZM55.8334 31.1667V33.75H58.4167V31.1667H55.8334ZM58.4167 33.75V49.2501H61V33.75H58.4167ZM58.4167 49.2501H55.8334V51.8333H58.4167V49.2501ZM55.8334 51.8333H53.25V54.4167H55.8334V51.8333ZM53.25 54.4167H37.75V57H53.25V54.4167ZM37.75 54.4167V51.8333H35.1667V54.4167H37.75ZM35.1667 51.8333V49.2501H32.5834V51.8333H35.1667ZM32.5834 49.2501V33.75H30V49.2501H32.5834ZM32.5834 33.75H35.1667V31.1667H32.5834V33.75ZM35.1667 31.1667H37.75V28.5833H35.1667V31.1667ZM37.75 36.3333V38.9166H40.3333V36.3333H37.75ZM42.9166 36.3333V38.9166H53.2498V36.3333H42.9166ZM37.75 44.0832V46.6665H40.3333V44.0832H37.75ZM42.9166 44.0832V46.6665H53.2498V44.0832H42.9166Z" fill="#FF7246"/>
  <defs>
    <filter id="filter0_di_1645_8618" x="0" y="0" width="90" height="90" filterUnits="userSpaceOnUse" color-interpolation-filters="sRGB">
      <feFlood flood-opacity="0" result="BackgroundImageFix"/>
      <feColorMatrix in="SourceAlpha" type="matrix" values="0 0 0 0 0 0 0 0 0 0 0 0 0 0 0 0 0 0 127 0" result="hardAlpha"/>
      <feOffset dy="3"/>
      <feGaussianBlur stdDeviation="5"/>
      <feComposite in2="hardAlpha" operator="out"/>
      <feColorMatrix type="matrix" values="0 0 0 0 0 0 0 0 0 0 0 0 0 0 0 0 0 0 1 0"/>
      <feBlend mode="normal" in2="BackgroundImageFix" result="effect1_dropShadow_1645_8618"/>
      <feBlend mode="normal" in="SourceGraphic" in2="effect1_dropShadow_1645_8618" result="shape"/>
      <feColorMatrix in="SourceAlpha" type="matrix" values="0 0 0 0 0 0 0 0 0 0 0 0 0 0 0 0 0 0 127 0" result="hardAlpha"/>
      <feOffset dx="2" dy="2"/>
      <feGaussianBlur stdDeviation="2.5"/>
      <feComposite in2="hardAlpha" operator="arithmetic" k2="-1" k3="1"/>
      <feColorMatrix type="matrix" values="0 0 0 0 0.366667 0 0 0 0 0.180278 0 0 0 0 0.122222 0 0 0 1 0"/>
      <feBlend mode="normal" in2="shape" result="effect2_innerShadow_1645_8618"/>
    </filter>
  </defs>
</svg>