<svg width="73" height="80" viewBox="0 0 217 238" fill="none" xmlns="http://www.w3.org/2000/svg">
<g style="mix-blend-mode:overlay">
<path fill-rule="evenodd" clip-rule="evenodd" d="M0.00795662 216.364H21.7072V238H0.00795662V216.364ZM21.7072 216.364H43.4064V238H21.7072V216.364ZM43.4064 216.364H65.1056V238H43.4064V216.364ZM65.1056 216.364H86.8048V238H65.1056V216.364ZM86.8048 216.364H108.504V238H86.8048V216.364ZM108.504 216.364H130.203V238H108.504V216.364ZM130.203 216.364H151.902V238H130.203V216.364ZM151.902 216.364H173.602V238H151.902V216.364ZM173.602 216.364H195.301V238H173.602V216.364ZM195.301 216.364H217V238H195.301V216.364ZM195.301 194.727H217V216.364H195.301V194.727ZM195.301 173.091H217V194.727H195.301V173.091ZM195.301 151.455H217V173.091H195.301V151.455ZM195.301 129.818H217V151.455H195.301V129.818ZM195.301 108.182H217V129.818H195.301V108.182ZM0.00596709 108.182H21.7052V129.818H0.00596709V108.182ZM86.8028 43.2727H65.1036V21.6364H86.8028V43.2727ZM108.502 21.6364H86.8028V0H108.502V21.6364ZM130.201 21.6364H108.502V0H130.201V21.6364ZM151.9 43.2727H130.201V21.6364H151.9V43.2727ZM173.6 64.9091H151.9V43.2727H173.6V64.9091ZM65.1016 64.9091H43.4024V43.2727H65.1016V64.9091ZM195.299 86.5455H173.6V64.9091H195.299V86.5455ZM43.4024 86.5455H21.7032V64.9091H43.4024V86.5455ZM195.299 86.5455H216.998V108.182H195.299V86.5455ZM0.00397831 86.5455H21.7032V108.182H0.00397831V86.5455ZM21.7032 108.182H43.4024V129.818H21.7032V108.182ZM43.4024 129.818H65.1016V151.455H43.4024V129.818ZM65.1016 151.455H86.8008V173.091H65.1016V151.455ZM86.8008 151.455H108.5V173.091H86.8008V151.455ZM108.5 151.455H130.199V173.091H108.5V151.455ZM151.898 173.091H173.598V194.727H151.898V173.091ZM173.598 194.727H195.297V216.364H173.598V194.727ZM21.7012 194.727H43.4004V216.364H21.7012V194.727ZM43.4004 173.091H65.0996V194.727H43.4004V173.091ZM130.197 151.455H151.896V173.091H130.197V151.455ZM151.896 129.818H173.596V151.455H151.896V129.818ZM173.596 108.182H195.295V129.818H173.596V108.182ZM0 129.818H21.6992V151.455H0V129.818ZM0 151.455H21.6992V173.091H0V151.455ZM0 173.091H21.6992V194.727H0V173.091ZM0 194.727H21.6992V216.364H0V194.727Z" fill="#36E2FF"/>
</g>
</svg>