<svg width="30" height="35" viewBox="0 0 30 35" fill="none" xmlns="http://www.w3.org/2000/svg">
<path fill-rule="evenodd" clip-rule="evenodd" d="M26.5893 11.8701L27.4986 5.68674L24.4432 0.0410156L19.6055 3.99686L19.0599 8.49039L14.404 7.37658L10.1119 8.49039L9.56628 3.99686L4.8013 0.0410156L1.74589 5.68674L2.65524 11.8701L0 15.826L1.60048 21.4717L7.45669 26.3877L11.2396 33.8769L14.8042 34.9907L18.0051 33.8769L21.788 26.3877L27.6442 21.4717L29.2447 15.826L26.5893 11.8701ZM10.2574 24.2754L8.62056 22.5855L4.32844 19.7817L4.80136 17.5159H6.94745L10.2575 22.0094L10.2574 24.2754ZM14.6223 32.7632L13.2036 31.9183L13.6401 30.5741H15.568L16.0772 31.9183L14.6223 32.7632ZM20.1875 22.5855L18.6233 24.2754V22.0094L21.7515 17.5159H23.8976L24.4432 19.7819L20.1875 22.5855Z" fill="white"/>
</svg>
