<svg xmlns="http://www.w3.org/2000/svg" width="21" height="23" viewBox="0 0 21 23" fill="none">
  <g filter="url(#filter0_d_1314_2799)">
    <path d="M14.824 4H5.55263C4.69501 4 4 4.8494 4 5.89766C4 6.94591 4.69496 7.79531 5.55263 7.79531H14.824C15.6817 7.79531 16.3767 6.94591 16.3767 5.89766C16.3767 4.8494 15.6817 4 14.824 4Z" fill="white"/>
    <path d="M5.55263 13.3979H10.388C11.2456 13.3979 11.9406 12.5485 11.9406 11.5002C11.9406 10.4519 11.2456 9.60254 10.388 9.60254H5.55263C4.69496 9.60254 4 10.4519 4 11.5002C4 12.5485 4.69501 13.3979 5.55263 13.3979Z" fill="white"/>
    <path d="M13.3453 15.2051H5.55263C4.69496 15.2051 4 16.0545 4 17.1027C4 18.151 4.69496 19.0004 5.55263 19.0004H13.3453C14.203 19.0004 14.898 18.151 14.898 17.1027C14.898 16.0545 14.203 15.2051 13.3453 15.2051Z" fill="white"/>
  </g>
  <defs>
    <filter id="filter0_d_1314_2799" x="0" y="0" width="20.377" height="23.0005" filterUnits="userSpaceOnUse" color-interpolation-filters="sRGB">
      <feFlood flood-opacity="0" result="BackgroundImageFix"/>
      <feColorMatrix in="SourceAlpha" type="matrix" values="0 0 0 0 0 0 0 0 0 0 0 0 0 0 0 0 0 0 127 0" result="hardAlpha"/>
      <feOffset/>
      <feGaussianBlur stdDeviation="2"/>
      <feComposite in2="hardAlpha" operator="out"/>
      <feColorMatrix type="matrix" values="0 0 0 0 1 0 0 0 0 1 0 0 0 0 1 0 0 0 1 0"/>
      <feBlend mode="normal" in2="BackgroundImageFix" result="effect1_dropShadow_1314_2799"/>
      <feBlend mode="normal" in="SourceGraphic" in2="effect1_dropShadow_1314_2799" result="shape"/>
    </filter>
  </defs>
</svg>
