<svg width="42" height="20" viewBox="0 0 42 20" fill="none" xmlns="http://www.w3.org/2000/svg">
<path d="M41.9999 6.44751V1.62289C41.9999 0.701868 41.2256 0.000142774 40.3145 0.000142774L34.4837 0C34.3926 0.482425 33.9826 0.833379 33.4816 0.833379C32.9805 0.833379 32.5705 0.48244 32.4795 0H1.6854C0.728816 0 0 0.745548 0 1.62275V6.44737C2.00439 6.44737 3.64427 8.0263 3.64427 10C3.64427 11.9737 2.00439 13.5088 0 13.5526V18.3773C0 19.2983 0.774331 20 1.6854 20H32.4339C32.525 19.5176 32.935 19.1666 33.436 19.1666C33.9371 19.1666 34.3471 19.5176 34.4381 20H40.2689C41.2255 20 41.9543 19.2545 41.9543 18.3773V13.5526C39.9499 13.5526 38.3101 11.9737 38.3101 10C38.3102 8.02644 39.9956 6.49134 42 6.44751L41.9999 6.44751ZM33.4814 18.5529C32.8891 18.5529 32.4336 18.1143 32.4336 17.5441C32.4336 16.9738 32.8891 16.5352 33.4814 16.5352C34.0737 16.5352 34.5292 16.9738 34.5292 17.5441C34.5291 18.1143 34.028 18.5529 33.4814 18.5529ZM33.4814 16.053C32.8891 16.053 32.4336 15.6144 32.4336 15.0441C32.4336 14.4738 32.8891 14.0352 33.4814 14.0352C34.0737 14.0352 34.5292 14.4738 34.5292 15.0441C34.5291 15.6144 34.028 16.053 33.4814 16.053ZM33.4814 13.509C32.8891 13.509 32.4336 13.0704 32.4336 12.5001C32.4336 11.9299 32.8891 11.4913 33.4814 11.4913C34.0737 11.4913 34.5292 11.9299 34.5292 12.5001C34.5291 13.0704 34.028 13.509 33.4814 13.509ZM33.4814 10.965C32.8891 10.965 32.4336 10.5264 32.4336 9.95617C32.4336 9.38592 32.8891 8.94732 33.4814 8.94732C34.0737 8.94732 34.5292 9.38592 34.5292 9.95617C34.5291 10.5264 34.028 10.965 33.4814 10.965ZM33.4814 8.42122C32.8891 8.42122 32.4336 7.98261 32.4336 7.41236C32.4336 6.8421 32.8891 6.4035 33.4814 6.4035C34.0737 6.4035 34.5292 6.8421 34.5292 7.41236C34.5291 7.98261 34.028 8.42122 33.4814 8.42122ZM33.4814 5.87725C32.8891 5.87725 32.4336 5.43865 32.4336 4.8684C32.4336 4.29814 32.8891 3.85954 33.4814 3.85954C34.0737 3.85954 34.5292 4.29814 34.5292 4.8684C34.5291 5.43865 34.028 5.87725 33.4814 5.87725ZM33.4814 3.33344C32.8891 3.33344 32.4336 2.89484 32.4336 2.32458C32.4336 1.75433 32.8891 1.31573 33.4814 1.31573C34.0737 1.31573 34.5292 1.75433 34.5292 2.32458C34.5291 2.89484 34.028 3.33344 33.4814 3.33344Z" fill="white"/>
</svg>
