    <svg
      xmlns="http://www.w3.org/2000/svg"
      width="165"
      height="45"
      viewBox="0 0 165 45"
      fill="none"
    >
      <g clip-path="url(#clip0_1273_3)" filter="url(#filter0_d_1273_3)">
        <path
          d="M134.235 11.9863V10.5352H125.249V15.6006H127.083V19.4928C126.564 18.8342 125.897 18.2474 125.077 17.732C124.259 17.2174 123.321 16.9597 122.263 16.9597C120.149 16.9597 118.558 17.7429 117.49 19.3077C116.422 20.8729 115.889 23.0963 115.889 25.9798C115.889 28.8626 116.422 31.0865 117.49 32.6513C118.558 34.2168 120.149 34.9985 122.263 34.9985C123.321 34.9985 124.259 34.7412 125.077 34.2266C125.897 33.7119 126.565 33.1248 127.083 32.4658V34.9985H135.604V31.3268V29.5011V11.9863H134.235ZM127.083 27.5241C127.083 28.2037 126.933 28.7042 126.633 29.0225C126.332 29.3419 125.881 29.5011 125.279 29.5011C124.678 29.5011 124.227 29.3419 123.927 29.0225C123.627 28.7039 123.476 28.2033 123.476 27.5241V24.4352C123.476 23.7557 123.627 23.2566 123.927 22.9375C124.227 22.6181 124.678 22.4586 125.279 22.4586C125.881 22.4586 126.331 22.6181 126.633 22.9375C126.933 23.2569 127.083 23.756 127.083 24.4352V27.5241Z"
          fill="white"
        />
        <path
          d="M33.6764 32.2323L33.7589 24.4302C33.8109 23.7979 33.7589 23.1404 33.7589 22.4486C33.7589 18.1038 32.7271 14.9424 30.6642 12.9658C28.6006 10.9881 25.6737 10 21.8793 10C18.0848 10 15.1565 10.9881 13.0947 12.9654C11.0845 14.8919 10.057 17.9465 10.0058 22.1212H10V32.2323H12.7227C12.7637 32.2789 12.8091 32.3211 12.8524 32.3669V35.0004H30.9051V32.3669C30.949 32.3218 30.9937 32.2789 31.0362 32.2323H33.6764ZM19.7648 17.7841C19.7648 17.0016 19.9406 16.4246 20.2934 16.0539C20.6455 15.6837 21.1748 15.4978 21.8793 15.4978C22.5837 15.4978 23.1127 15.6837 23.4644 16.0539C23.8172 16.4246 23.9938 17.0016 23.9938 17.7841V27.1127C23.9938 27.8951 23.8172 28.4718 23.4644 28.8425C23.1124 29.2124 22.5837 29.3986 21.8793 29.3986C21.1748 29.3986 20.6455 29.2182 20.2934 28.858C19.9406 28.4978 19.7648 27.9157 19.7648 27.1127V17.7841Z"
          fill="white"
        />
        <path
          d="M68.6956 17.3945V17.7338V20.0752H65.9678C65.9663 20.0774 65.9656 20.0799 65.9634 20.0817V20.0752V17.8265H57.4434V22.8927H58.8116V29.9359H57.4434V35.001H68.7628V29.9359H65.9634V27.2483C65.9634 25.9098 66.3162 24.9003 67.0207 24.2208C67.7251 23.5412 68.7308 23.2016 70.0373 23.2016C71.0117 23.2016 71.9232 23.3763 72.7741 23.7267V20.1088V17.8269V17.3949H68.6956V17.3945Z"
          fill="white"
        />
        <path
          d="M84.7732 32.2844L84.9967 32.7243H87.505V35.0001H93.8582V29.935H92.5212L89.5359 25.8266L92.179 22.8922H93.4542V17.826H86.8928L83.0358 23.5097H82.2903V10.9688H73.7695V16.0346H75.1381V29.935H73.7695V35.0001H82.2903V29.0696H83.0358L83.3083 29.572L84.7732 32.2844Z"
          fill="white"
        />
        <path
          d="M155.001 27.0926V24.8688C155.001 22.624 154.353 20.7449 153.058 19.2313C151.761 17.7181 149.652 16.9609 146.729 16.9609C143.785 16.9609 141.483 17.7286 139.825 19.262C138.167 20.7965 137.338 23.0362 137.338 25.981V32.2862H139.43H140.803V35.0001H154.453V33.4663C154.459 33.4627 154.465 33.4591 154.472 33.4558V28.5138C153.622 28.8021 152.626 29.0389 151.486 29.2244C150.346 29.4099 149.143 29.5023 147.879 29.5023C146.822 29.5023 146.065 29.3225 145.609 28.9616C145.153 28.6015 144.925 28.0403 144.925 27.2777V27.093L155.001 27.0926ZM144.926 23.3238C144.926 22.6446 145.076 22.1455 145.376 21.8261C145.676 21.5074 146.127 21.3476 146.729 21.3476C147.33 21.3476 147.781 21.5017 148.081 21.811C148.382 22.1195 148.533 22.6244 148.533 23.3238V23.6944H144.926V23.3238Z"
          fill="white"
        />
        <path
          d="M112.475 23.711C112.466 22.2826 112.205 21.0841 111.689 20.1184C111.682 20.1061 111.674 20.0956 111.667 20.083C111.57 19.9036 111.465 19.7301 111.35 19.5669C111.324 19.5298 111.293 19.498 111.266 19.4619C111.165 19.3273 111.062 19.1934 110.949 19.07C110.88 18.9953 110.801 18.9285 110.727 18.8578C110.648 18.7813 110.573 18.7004 110.488 18.629C109.659 17.9339 108.485 17.4561 106.967 17.1955C106.057 17.0389 105.023 16.9609 103.864 16.9609C102.641 16.9609 101.387 17.0436 100.101 17.2085C98.817 17.3734 97.6242 17.5896 96.5255 17.857V23.5407C97.4167 23.2116 98.3959 22.9492 99.464 22.7532C100.532 22.5576 101.532 22.4598 102.465 22.4598C103.463 22.4598 104.207 22.5584 104.697 22.755C104.766 22.7836 104.831 22.8135 104.89 22.8456C105.368 23.1037 105.638 23.5822 105.7 24.282C100.709 24.3596 97.5897 25.5021 96.3406 27.7104C95.9253 28.447 95.7168 29.3012 95.7168 30.2746C95.7168 30.4431 95.7244 30.6066 95.7361 30.7665C95.7419 30.8524 95.7524 30.9343 95.7622 31.0173C95.7695 31.0822 95.7764 31.1483 95.7855 31.2111C95.8011 31.3204 95.8211 31.4262 95.8421 31.5305C95.848 31.5586 95.8534 31.586 95.8599 31.6135C96.055 32.4854 96.4489 33.205 97.0534 33.764C97.5454 34.218 98.1412 34.5421 98.8322 34.746C98.8537 34.7525 98.8747 34.7579 98.8969 34.7644C99.0502 34.8074 99.2082 34.8449 99.371 34.8752C99.4099 34.8828 99.4477 34.8907 99.4865 34.8972C99.6391 34.9232 99.7961 34.9438 99.9563 34.96C100.002 34.9643 100.048 34.9705 100.095 34.9741C100.299 34.9903 100.507 35.0001 100.723 35.0001C101.905 35.0001 102.905 34.7428 103.725 34.2281C103.929 34.0993 104.123 33.9665 104.304 33.8286C104.851 33.4154 105.295 32.9625 105.637 32.4677V35.0004H111.114H113.847V29.5023V23.711H112.475ZM105.637 27.5253C105.637 28.3492 105.491 28.988 105.2 29.4405C104.91 29.8938 104.496 30.1208 103.957 30.1208C103.563 30.1208 103.257 30.0122 103.04 29.796C102.986 29.7419 102.938 29.6838 102.897 29.6214C102.774 29.4344 102.713 29.2096 102.713 28.9476C102.713 28.3709 102.966 27.9587 103.475 27.7119C103.983 27.4643 104.703 27.3412 105.637 27.3412V27.5253Z"
          fill="white"
        />
        <path
          d="M47.5028 17.8242V22.4577V27.5235C47.5028 28.2031 47.3531 28.7029 47.0515 29.0212C46.7522 29.3413 46.3002 29.5005 45.6989 29.5005C45.0976 29.5005 44.6468 29.3413 44.3463 29.0212C44.0455 28.7026 43.8951 28.2027 43.8951 27.5235V17.8242H35.375V22.4577H36.744V28.9757C36.744 30.8499 37.1734 32.3216 38.0334 33.3931C38.8948 34.4638 40.1842 34.9987 41.9056 34.9987H47.5028H47.5475V32.724H50.3341V34.9987H54.655V29.5005V17.8242H47.5028Z"
          fill="white"
        />
      </g>
      <defs>
        <clipPath id="clip0_1273_3">
          <rect
            width="145"
            height="25"
            fill="white"
            transform="translate(10 10)"
          />
        </clipPath>
      </defs>
    </svg>