<svg width="19" height="26" viewBox="0 0 19 26" fill="none" xmlns="http://www.w3.org/2000/svg">
<path d="M1.88477 23.6729H17.2227V25.2143H1.88477V23.6729Z" fill="#7988AF"/>
<path d="M17.2227 22.1309H18.7564V23.6723H17.2227V22.1309Z" fill="#7988AF"/>
<path d="M0.34375 22.1309H1.87748V23.6723H0.34375V22.1309Z" fill="#7988AF"/>
<path d="M17.2227 2.09375H18.7564V3.63523H17.2227V2.09375Z" fill="#7988AF"/>
<path d="M0.34375 2.09375H1.87748V3.63523H0.34375V2.09375Z" fill="#7988AF"/>
<path d="M1.88477 0.549805H17.2227V2.09129H1.88477V0.549805Z" fill="#7988AF"/>
<path d="M15.6888 19.0479V20.5893H3.41849V19.0479H1.88477V22.1309H17.2227V19.0479H15.6888Z" fill="#7988AF"/>
<path d="M3.40234 17.5059H4.93607V19.0473H3.40234V17.5059Z" fill="#7988AF"/>
<path d="M4.94531 15.9668H6.47904V17.5083H4.94531V15.9668Z" fill="#7988AF"/>
<path d="M14.1465 17.5059H15.6802V19.0473H14.1465V17.5059Z" fill="#7988AF"/>
<path d="M3.40234 6.7168H4.93607V8.25828H3.40234V6.7168Z" fill="#7988AF"/>
<path d="M14.1465 6.7168H15.6802V8.25828H14.1465V6.7168Z" fill="#7988AF"/>
<path d="M12.6133 15.9668H14.147V17.5083H12.6133V15.9668Z" fill="#7988AF"/>
<path d="M4.94531 8.25586H6.47904V9.79734H4.94531V8.25586Z" fill="#7988AF"/>
<path d="M12.6133 8.25586H14.147V9.79734H12.6133V8.25586Z" fill="#7988AF"/>
<path d="M6.48633 9.7998H8.02005V15.9661H6.48633V9.7998Z" fill="#7988AF"/>
<path d="M11.0879 9.7998H12.6216V15.9661H11.0879V9.7998Z" fill="#7988AF"/>
<path d="M1.88477 3.63086V6.71386H3.41849V5.17238H6.48611V6.71386H8.01997V8.25548H11.0875V6.71386H12.6213V5.17238H15.6889V6.71386H17.2227V3.63086H1.88477Z" fill="#7988AF"/>
</svg>
