<svg width="636" height="109" viewBox="0 0 636 109" fill="none" xmlns="http://www.w3.org/2000/svg">
<g clip-path="url(#clip0_2263_918)">
<path d="M544.92 8.66048V2.3335H505.504V24.4189H513.55V41.389C511.275 38.5173 508.346 35.9589 504.752 33.7119C501.163 31.4681 497.049 30.3447 492.408 30.3447C483.137 30.3447 476.156 33.7591 471.474 40.5818C466.787 47.406 464.449 57.1002 464.449 69.6723C464.449 82.2413 466.787 91.9372 471.474 98.7598C476.156 105.586 483.135 108.994 492.408 108.994C497.049 108.994 501.163 107.872 504.752 105.628C508.347 103.384 511.276 100.824 513.55 97.951V108.994H550.924V92.9851V85.0248V8.66048H544.92ZM513.55 76.4053C513.55 79.3682 512.891 81.5506 511.574 82.9384C510.255 84.3309 508.276 85.0248 505.638 85.0248C503.001 85.0248 501.023 84.3309 499.709 82.9384C498.389 81.549 497.729 79.3666 497.729 76.4053V62.9378C497.729 59.975 498.389 57.7988 499.709 56.4079C501.022 55.0153 503.001 54.3199 505.638 54.3199C508.276 54.3199 510.253 55.0153 511.574 56.4079C512.891 57.8004 513.55 59.9765 513.55 62.9378V76.4053Z" fill="white"/>
<path d="M103.85 96.9329L104.211 62.9158C104.439 60.159 104.211 57.2921 104.211 54.2758C104.211 35.3326 99.6857 21.5489 90.6375 12.9309C81.586 4.3082 68.7482 0 52.1049 0C35.4617 0 22.6175 4.3082 13.574 12.9293C4.7568 21.3286 0.25019 34.6466 0.0254971 52.8486H0V96.9329H11.9422C12.1223 97.1359 12.3215 97.32 12.5111 97.5199V109.002H91.694V97.5199C91.8868 97.3232 92.0828 97.1359 92.2693 96.9329H103.85ZM42.8304 33.9385C42.8304 30.5272 43.6017 28.0112 45.149 26.3952C46.6932 24.7808 49.015 23.9705 52.1049 23.9705C55.1949 23.9705 57.5151 24.7808 59.0577 26.3952C60.605 28.0112 61.3795 30.5272 61.3795 33.9385V74.6115C61.3795 78.0228 60.605 80.5372 59.0577 82.1532C57.5135 83.766 55.1949 84.5779 52.1049 84.5779C49.015 84.5779 46.6932 83.7912 45.149 82.2209C43.6017 80.6505 42.8304 78.1125 42.8304 74.6115V33.9385Z" fill="white"/>
<path d="M257.45 32.2402V33.7193V43.9281H245.486C245.479 43.9375 245.476 43.9485 245.467 43.9564V43.9281V34.1237H208.096V56.2123H214.097V86.9204H208.096V109.004H257.745V86.9204H245.467V75.2027C245.467 69.3666 247.014 64.9656 250.104 62.0027C253.194 59.0398 257.605 57.5592 263.335 57.5592C267.609 57.5592 271.607 58.3207 275.34 59.8486V44.0744V34.1253V32.2418H257.45V32.2402Z" fill="white"/>
<path d="M327.971 97.1599L328.952 99.078H339.954V109H367.82V86.9165H361.956L348.862 69.004L360.455 56.21H366.048V34.1214H337.268L320.351 58.9022H317.081V4.22363H279.707V26.3106H285.71V86.9165H279.707V109H317.081V83.1433H320.351L321.546 85.3336L327.971 97.1599Z" fill="white"/>
<path d="M636.004 74.5236V64.8278C636.004 55.0407 633.163 46.8476 627.482 40.2484C621.796 33.6508 612.545 30.3496 599.722 30.3496C586.808 30.3496 576.714 33.6964 569.441 40.3821C562.168 47.0726 558.531 56.8377 558.531 69.6773V97.1676H567.707H573.729V109H633.6V102.313C633.628 102.297 633.655 102.281 633.687 102.267V80.72C629.955 81.9772 625.589 83.0094 620.59 83.8182C615.587 84.627 610.313 85.0298 604.769 85.0298C600.131 85.0298 596.81 84.2462 594.812 82.6727C592.811 81.1024 591.811 78.6556 591.811 75.3308V74.5252L636.004 74.5236ZM591.813 58.0917C591.813 55.1304 592.473 52.9543 593.789 51.5618C595.105 50.1724 597.081 49.4753 599.722 49.4753C602.358 49.4753 604.337 50.1472 605.655 51.4957C606.974 52.841 607.634 55.0423 607.634 58.0917V59.7077H591.813V58.0917Z" fill="white"/>
<path d="M449.474 59.7801C449.434 53.5522 448.292 48.3267 446.029 44.116C445.997 44.0625 445.963 44.0169 445.932 43.9618C445.505 43.1798 445.047 42.423 444.54 41.7117C444.426 41.5497 444.292 41.4112 444.174 41.2539C443.729 40.6669 443.28 40.0832 442.783 39.5451C442.482 39.2193 442.133 38.9282 441.809 38.6198C441.46 38.2863 441.133 37.9338 440.76 37.6223C437.122 34.5917 431.974 32.5084 425.317 31.3724C421.327 30.6895 416.788 30.3496 411.707 30.3496C406.341 30.3496 400.842 30.7099 395.202 31.429C389.569 32.1481 384.337 33.0906 379.518 34.2566V59.0374C383.427 57.6024 387.722 56.4584 392.407 55.604C397.09 54.7512 401.479 54.3248 405.57 54.3248C409.949 54.3248 413.211 54.7544 415.359 55.6119C415.663 55.7362 415.947 55.8668 416.208 56.0069C418.301 57.1319 419.486 59.2183 419.757 62.2693C397.868 62.6076 384.186 67.5893 378.707 77.2174C376.885 80.4289 375.971 84.1533 375.971 88.397C375.971 89.1318 376.004 89.8446 376.055 90.5417C376.081 90.9162 376.127 91.2734 376.17 91.6353C376.202 91.9185 376.232 92.2064 376.272 92.4802C376.34 92.957 376.428 93.418 376.52 93.8728C376.546 93.9955 376.57 94.1151 376.599 94.2347C377.454 98.0362 379.182 101.174 381.833 103.611C383.991 105.59 386.605 107.003 389.636 107.893C389.73 107.921 389.822 107.944 389.919 107.973C390.592 108.16 391.285 108.324 391.999 108.456C392.169 108.489 392.335 108.523 392.506 108.552C393.175 108.665 393.863 108.755 394.566 108.826C394.768 108.844 394.968 108.871 395.173 108.887C396.07 108.958 396.982 109 397.93 109C403.112 109 407.501 107.878 411.096 105.635C411.99 105.073 412.843 104.494 413.636 103.893C416.033 102.091 417.982 100.116 419.485 97.9591V109.002H443.506H455.491V85.0298V59.7801H449.474ZM419.482 76.4102C419.482 80.0025 418.844 82.7876 417.568 84.7607C416.294 86.737 414.479 87.7267 412.114 87.7267C410.384 87.7267 409.045 87.2531 408.091 86.3106C407.855 86.0746 407.643 85.8212 407.464 85.549C406.926 84.734 406.658 83.7537 406.658 82.6113C406.658 80.0969 407.769 78.3 409.998 77.2237C412.226 76.1443 415.386 75.6077 419.482 75.6077V76.4102Z" fill="white"/>
<path d="M164.496 34.1138V54.3157V76.4027C164.496 79.3656 163.839 81.5449 162.517 82.9327C161.203 84.3284 159.221 85.0223 156.584 85.0223C153.946 85.0223 151.969 84.3284 150.651 82.9327C149.331 81.5433 148.672 79.364 148.672 76.4027V34.1138H111.301V54.3157H117.305V82.7344C117.305 90.9055 119.189 97.3222 122.961 101.994C126.739 106.662 132.395 108.994 139.945 108.994H164.496H164.692V99.0767H176.914V108.994H195.867V85.0223V34.1138H164.496Z" fill="white"/>
</g>
<defs>
<clipPath id="clip0_2263_918">
<rect width="636" height="109" fill="white"/>
</clipPath>
</defs>
</svg>
