<svg width="80" height="93" viewBox="0 0 80 93" fill="none" xmlns="http://www.w3.org/2000/svg">
<path id="Subtract" fill-rule="evenodd" clip-rule="evenodd" d="M76.9425 33.3543C74.7632 30.084 73.8716 26.1228 74.4393 22.2341L75.5486 14.6356C75.9106 12.1556 75.4657 9.62493 74.2796 7.41709L73.7993 6.52313C70.561 0.495287 62.6203 -1.06798 57.3388 3.28257L56.5754 3.9114C54.9122 5.28143 53.8404 7.23931 53.5826 9.37864C52.9823 14.3586 48.1723 17.7003 43.2959 16.5251L41.5796 16.1115C40.1529 15.7677 38.6633 15.782 37.2435 16.1531L36.5639 16.3308C31.7047 17.6011 26.8417 14.2913 26.2407 9.30498C25.9883 7.21132 24.9473 5.29263 23.3296 3.93977L22.5894 3.32071C17.3782 -1.03741 9.47939 0.48708 6.26438 6.47148L5.74547 7.43736C4.56643 9.63203 4.12421 12.1476 4.4841 14.6128L5.59672 22.2343C6.16441 26.1229 5.27282 30.084 3.09375 33.3543C0.518739 37.2189 -0.239219 42.0157 1.01877 46.486L1.72903 49.0099C2.89781 53.1631 5.28301 56.8714 8.57753 59.6574L14.0469 64.2825C17.9322 67.5681 21.1112 71.6071 23.3919 76.1556L27.908 85.1623C29.5888 88.5143 32.5564 91.0418 36.1332 92.1677L36.4371 92.2633C39.0928 93.0993 41.9478 93.0533 44.5753 92.1323C47.7334 91.0252 50.3376 88.7339 51.8376 85.7424L56.5376 76.3689C58.8889 71.6797 62.1663 67.5156 66.1719 64.1284L71.4591 59.6573C74.7535 56.8714 77.1387 53.1632 78.3074 49.01L79.0177 46.4861C80.2757 42.0158 79.5176 37.2189 76.9425 33.3543ZM27.785 57.6445C27.7849 59.6949 25.2873 60.7008 23.8662 59.2228L23.3953 58.733C23.2637 58.5961 23.1172 58.4744 22.9587 58.3701L13.65 52.2446C12.1517 51.2587 11.4068 49.4581 11.7707 47.7018C12.1916 45.6706 13.9809 44.2141 16.0552 44.2141H16.1981C17.6499 44.2141 19.0147 44.9068 19.8717 46.0788L27.3459 56.3002C27.6312 56.6904 27.785 57.1612 27.785 57.6445ZM41.7006 86.2776C40.663 86.8845 39.3771 86.8773 38.3464 86.259L37.8255 85.9464C36.7811 85.3199 36.3065 84.0562 36.6801 82.897C37.0288 81.8149 38.0359 81.0813 39.1729 81.0813H40.8405C41.9402 81.0813 42.9248 81.7629 43.3119 82.7923C43.7647 83.9962 43.284 85.3513 42.1737 86.0008L41.7006 86.2776ZM55.8594 58.3652C55.6973 58.4728 55.5488 58.5996 55.4172 58.7428L55.0911 59.0978C53.7204 60.5896 51.2316 59.6198 51.2316 57.594C51.2316 57.1425 51.3691 56.7017 51.6258 56.3303L58.6335 46.1897C59.4884 44.9525 60.8964 44.2141 62.4003 44.2141H62.5243C64.5703 44.2141 66.349 45.6178 66.8247 47.6077C67.256 49.412 66.515 51.2937 64.9692 52.3195L55.8594 58.3652Z" fill="white"/>
</svg>
