<svg width="17" height="19" viewBox="0 0 17 19" fill="none" xmlns="http://www.w3.org/2000/svg">
<path fill-rule="evenodd" clip-rule="evenodd" d="M15.7459 6.85488C15.3092 6.18616 15.1308 5.38138 15.2439 4.59074L15.4704 3.0074C15.5405 2.51751 15.4541 2.01799 15.2236 1.58009L15.1165 1.37676C14.4733 0.155012 12.8659 -0.160129 11.8089 0.728272L11.6702 0.844886C11.3378 1.12429 11.1243 1.51992 11.0734 1.95117C10.953 2.97011 9.96727 3.65329 8.97093 3.40829L8.67571 3.3357C8.38742 3.26481 8.08592 3.26776 7.79908 3.34427L7.71096 3.36777C6.71849 3.6325 5.72186 2.95611 5.60136 1.93603C5.55153 1.51418 5.34435 1.12667 5.02122 0.850931L4.88656 0.736015C3.84379 -0.153815 2.24487 0.153473 1.60623 1.36644L1.49159 1.58417C1.26243 2.01942 1.17656 2.51591 1.24623 3.00284L1.47342 4.59077C1.58653 5.38139 1.4081 6.18616 0.971422 6.85487C0.455608 7.64478 0.303824 8.61815 0.554646 9.5276L0.696446 10.0417C0.931856 10.8953 1.41539 11.6598 2.08577 12.2382L3.16031 13.1654C3.93944 13.8377 4.57495 14.6602 5.02881 15.5838L5.94738 17.4531C6.27627 18.1223 6.86307 18.6292 7.57306 18.8572L7.63398 18.8768C8.1701 19.049 8.74805 19.0395 9.27826 18.8499C9.90489 18.6257 10.4196 18.1663 10.7131 17.569L11.667 15.6279C12.1351 14.6752 12.7906 13.8268 13.5943 13.1333L14.6317 12.2382C15.302 11.6598 15.7856 10.8953 16.021 10.0418L16.1628 9.52762C16.4136 8.61816 16.2618 7.64477 15.7459 6.85488ZM5.91138 11.8086C5.91137 12.2248 5.40247 12.4268 5.11704 12.1239L5.03278 12.0344C5.00673 12.0068 4.97768 11.9822 4.94615 11.961L3.08516 10.7115C2.78374 10.5091 2.6342 10.1448 2.70644 9.78903C2.79126 9.37132 3.16244 9.07114 3.58867 9.07114C3.88014 9.07114 4.1562 9.21166 4.32599 9.44858L5.82533 11.5408C5.88129 11.6189 5.91139 11.7125 5.91138 11.8086ZM8.70238 17.6533C8.49104 17.7795 8.22718 17.778 8.01727 17.6495L7.92097 17.5905C7.71082 17.4619 7.61537 17.2066 7.68959 16.9716C7.76006 16.7485 7.96702 16.5969 8.20098 16.5969H8.51203C8.73847 16.5969 8.94092 16.738 9.01923 16.9505C9.10922 17.1946 9.0125 17.4682 8.78908 17.6016L8.70238 17.6533ZM11.5275 11.96C11.4953 11.9818 11.4658 12.0075 11.4398 12.0364L11.3838 12.0986C11.1088 12.404 10.602 12.2094 10.602 11.7984C10.602 11.7088 10.6289 11.6212 10.6792 11.5469L12.0854 9.47053C12.2546 9.22075 12.5378 9.07114 12.8395 9.07114C13.2601 9.07114 13.627 9.36069 13.723 9.77019C13.8086 10.1357 13.6598 10.5161 13.349 10.7266L11.5275 11.96Z" fill="#AA7918"/>
</svg>
