<svg width="31" height="15" viewBox="0 0 31 15" fill="none" xmlns="http://www.w3.org/2000/svg">
<path d="M30.8879 4.97163V1.50059C30.8879 0.837963 30.3195 0.333111 29.6506 0.333111L25.3701 0.333008C25.3032 0.680086 25.0022 0.932578 24.6344 0.932578C24.2666 0.932578 23.9656 0.680096 23.8987 0.333008H1.29198C0.589731 0.333008 0.0546875 0.869388 0.0546875 1.50049V4.97153C1.52616 4.97153 2.73004 6.10748 2.73004 7.52745C2.73004 8.94742 1.52616 10.0518 0.0546875 10.0834V13.5544C0.0546875 14.217 0.623145 14.7219 1.29198 14.7219H23.8653C23.9321 14.3748 24.2331 14.1223 24.601 14.1223C24.9688 14.1223 25.2698 14.3748 25.3366 14.7219H29.6172C30.3195 14.7219 30.8545 14.1855 30.8545 13.5544V10.0834C29.383 10.0834 28.1791 8.94742 28.1791 7.52745C28.1793 6.10759 29.4165 5.00316 30.8879 4.97163ZM24.6343 13.6808C24.1995 13.6808 23.8651 13.3652 23.8651 12.955C23.8651 12.5447 24.1995 12.2292 24.6343 12.2292C25.0691 12.2292 25.4035 12.5447 25.4035 12.955C25.4034 13.3652 25.0356 13.6808 24.6343 13.6808ZM24.6343 11.8822C24.1995 11.8822 23.8651 11.5667 23.8651 11.1564C23.8651 10.7461 24.1995 10.4306 24.6343 10.4306C25.0691 10.4306 25.4035 10.7461 25.4035 11.1564C25.4034 11.5667 25.0356 11.8822 24.6343 11.8822ZM24.6343 10.052C24.1995 10.052 23.8651 9.73643 23.8651 9.32616C23.8651 8.91589 24.1995 8.60034 24.6343 8.60034C25.0691 8.60034 25.4035 8.91589 25.4035 9.32616C25.4034 9.73643 25.0356 10.052 24.6343 10.052ZM24.6343 8.22174C24.1995 8.22174 23.8651 7.90619 23.8651 7.49592C23.8651 7.08566 24.1995 6.7701 24.6343 6.7701C25.0691 6.7701 25.4035 7.08566 25.4035 7.49592C25.4034 7.90619 25.0356 8.22174 24.6343 8.22174ZM24.6343 6.3916C24.1995 6.3916 23.8651 6.07605 23.8651 5.66579C23.8651 5.25552 24.1995 4.93997 24.6343 4.93997C25.0691 4.93997 25.4035 5.25552 25.4035 5.66579C25.4034 6.07605 25.0356 6.3916 24.6343 6.3916ZM24.6343 4.56137C24.1995 4.56137 23.8651 4.24582 23.8651 3.83555C23.8651 3.42528 24.1995 3.10973 24.6343 3.10973C25.0691 3.10973 25.4035 3.42528 25.4035 3.83555C25.4034 4.24582 25.0356 4.56137 24.6343 4.56137ZM24.6343 2.73123C24.1995 2.73123 23.8651 2.41568 23.8651 2.00542C23.8651 1.59515 24.1995 1.2796 24.6343 1.2796C25.0691 1.2796 25.4035 1.59515 25.4035 2.00542C25.4034 2.41568 25.0356 2.73123 24.6343 2.73123Z" fill="#E3BA24"/>
</svg>
