<svg width="17" height="19" viewBox="0 0 17 19" fill="none" xmlns="http://www.w3.org/2000/svg">
<path fill-rule="evenodd" clip-rule="evenodd" d="M15.5858 6.85488C15.1491 6.18616 14.9706 5.38138 15.0838 4.59074L15.3103 3.0074C15.3804 2.51751 15.294 2.01799 15.0634 1.58009L14.9564 1.37676C14.3131 0.155012 12.7057 -0.160129 11.6488 0.728272L11.51 0.844886C11.1776 1.12429 10.9642 1.51992 10.9132 1.95117C10.7929 2.97011 9.80711 3.65329 8.81077 3.40829L8.51555 3.3357C8.22727 3.26481 7.92576 3.26776 7.63892 3.34427L7.55081 3.36777C6.55833 3.6325 5.5617 2.95611 5.4412 1.93603C5.39137 1.51418 5.18419 1.12667 4.86106 0.850931L4.7264 0.736015C3.68364 -0.153815 2.08471 0.153473 1.44607 1.36644L1.33143 1.58417C1.10227 2.01942 1.0164 2.51591 1.08607 3.00284L1.31326 4.59077C1.42638 5.38139 1.24794 6.18616 0.811265 6.85487C0.295452 7.64478 0.143668 8.61815 0.39449 9.5276L0.53629 10.0417C0.7717 10.8953 1.25524 11.6598 1.92561 12.2382L3.00015 13.1654C3.77928 13.8377 4.41479 14.6602 4.86865 15.5838L5.78723 17.4531C6.11611 18.1223 6.70291 18.6292 7.41291 18.8572L7.47382 18.8768C8.00995 19.049 8.5879 19.0395 9.1181 18.8499C9.74474 18.6257 10.2594 18.1663 10.5529 17.569L11.5068 15.6279C11.975 14.6752 12.6305 13.8268 13.4341 13.1333L14.4715 12.2382C15.1419 11.6598 15.6254 10.8953 15.8608 10.0418L16.0026 9.52762C16.2534 8.61816 16.1016 7.64477 15.5858 6.85488ZM5.75122 11.8086C5.75121 12.2248 5.24231 12.4268 4.95689 12.1239L4.87262 12.0344C4.84658 12.0068 4.81752 11.9822 4.786 11.961L2.925 10.7115C2.62358 10.5091 2.47404 10.1448 2.54629 9.78903C2.6311 9.37132 3.00228 9.07114 3.42851 9.07114C3.71998 9.07114 3.99605 9.21166 4.16583 9.44858L5.66517 11.5408C5.72114 11.6189 5.75123 11.7125 5.75122 11.8086ZM8.54222 17.6533C8.33088 17.7795 8.06702 17.778 7.85711 17.6495L7.76082 17.5905C7.55066 17.4619 7.45522 17.2066 7.52943 16.9716C7.5999 16.7485 7.80686 16.5969 8.04082 16.5969H8.35187C8.57832 16.5969 8.78076 16.738 8.85907 16.9505C8.94906 17.1946 8.85234 17.4682 8.62892 17.6016L8.54222 17.6533ZM11.3673 11.96C11.3351 11.9818 11.3057 12.0075 11.2797 12.0364L11.2237 12.0986C10.9486 12.404 10.4419 12.2094 10.4419 11.7984C10.4419 11.7088 10.4687 11.6212 10.519 11.5469L11.9253 9.47053C12.0944 9.22075 12.3777 9.07114 12.6793 9.07114C13.0999 9.07114 13.4669 9.36069 13.5628 9.77019C13.6484 10.1357 13.4997 10.5161 13.1888 10.7266L11.3673 11.96Z" fill="#E3BA24"/>
</svg>
