<svg width="16" height="19" viewBox="0 0 16 19" fill="none" xmlns="http://www.w3.org/2000/svg">
<path fill-rule="evenodd" clip-rule="evenodd" d="M15.3807 6.85488C14.944 6.18616 14.7656 5.38138 14.8787 4.59074L15.1052 3.0074C15.1753 2.51751 15.0889 2.01799 14.8583 1.58009L14.7513 1.37676C14.108 0.155012 12.5007 -0.160129 11.4437 0.728272L11.3049 0.844886C10.9725 1.12429 10.7591 1.51992 10.7082 1.95117C10.5878 2.97011 9.60203 3.65329 8.6057 3.40829L8.31047 3.3357C8.02219 3.26481 7.72069 3.26776 7.43384 3.34427L7.34573 3.36777C6.35326 3.6325 5.35662 2.95611 5.23612 1.93603C5.18629 1.51418 4.97911 1.12667 4.65599 0.850931L4.52132 0.736015C3.47856 -0.153815 1.87963 0.153473 1.24099 1.36644L1.12636 1.58417C0.897197 2.01942 0.811326 2.51591 0.880992 3.00284L1.10818 4.59077C1.2213 5.38139 1.04287 6.18616 0.606187 6.85487C0.0903739 7.64478 -0.0614102 8.61815 0.189412 9.5276L0.331212 10.0417C0.566622 10.8953 1.05016 11.6598 1.72053 12.2382L2.79508 13.1654C3.57421 13.8377 4.20971 14.6602 4.66357 15.5838L5.58215 17.4531C5.91103 18.1223 6.49784 18.6292 7.20783 18.8572L7.26874 18.8768C7.80487 19.049 8.38282 19.0395 8.91302 18.8499C9.53966 18.6257 10.0543 18.1663 10.3478 17.569L11.3017 15.6279C11.7699 14.6752 12.4254 13.8268 13.229 13.1333L14.2664 12.2382C14.9368 11.6598 15.4203 10.8953 15.6557 10.0418L15.7975 9.52762C16.0484 8.61816 15.8966 7.64477 15.3807 6.85488ZM5.54615 11.8086C5.54613 12.2248 5.03724 12.4268 4.75181 12.1239L4.66754 12.0344C4.6415 12.0068 4.61244 11.9822 4.58092 11.961L2.71993 10.7115C2.41851 10.5091 2.26896 10.1448 2.34121 9.78903C2.42603 9.37132 2.7972 9.07114 3.22343 9.07114C3.5149 9.07114 3.79097 9.21166 3.96075 9.44858L5.4601 11.5408C5.51606 11.6189 5.54615 11.7125 5.54615 11.8086ZM8.33714 17.6533C8.1258 17.7795 7.86194 17.778 7.65203 17.6495L7.55574 17.5905C7.34558 17.4619 7.25014 17.2066 7.32435 16.9716C7.39482 16.7485 7.60178 16.5969 7.83574 16.5969H8.1468C8.37324 16.5969 8.57568 16.738 8.654 16.9505C8.74398 17.1946 8.64727 17.4682 8.42384 17.6016L8.33714 17.6533ZM11.1623 11.96C11.13 11.9818 11.1006 12.0075 11.0746 12.0364L11.0186 12.0986C10.7436 12.404 10.2368 12.2094 10.2368 11.7984C10.2368 11.7088 10.2636 11.6212 10.3139 11.5469L11.7202 9.47053C11.8894 9.22075 12.1726 9.07114 12.4742 9.07114C12.8948 9.07114 13.2618 9.36069 13.3577 9.77019C13.4433 10.1357 13.2946 10.5161 12.9838 10.7266L11.1623 11.96Z" fill="#A5A0A0"/>
</svg>
