<svg xmlns="http://www.w3.org/2000/svg" width="34" height="31" viewBox="0 0 34 31" fill="#C5AAFF">
  <g style="mix-blend-mode:overlay">
    <path d="M14.7246 15.46H16.197V21.3495H14.7246V15.46Z" fill="white"/>
    <path d="M17.6699 15.46H19.1423V21.3495H17.6699V15.46Z" fill="white"/>
    <path d="M13.25 21.3496H14.7224V25.7668H13.25V21.3496Z" fill="white"/>
    <path d="M19.1406 21.3496H20.613V25.7668H19.1406V21.3496Z" fill="white"/>
    <path d="M11.7793 25.7676H13.2517V27.24H11.7793V25.7676Z" fill="white"/>
    <path d="M20.6133 25.7676H22.0857V27.24H20.6133V25.7676Z" fill="white"/>
    <path d="M13.25 27.2393H20.6119V28.7116H13.25V27.2393Z" fill="white"/>
    <path d="M19.1406 13.9883H20.613V15.4607H19.1406V13.9883Z" fill="white"/>
    <path d="M20.6133 12.5156H27.9752V13.988H20.6133V12.5156Z" fill="white"/>
    <path d="M13.25 13.9883H14.7224V15.4607H13.25V13.9883Z" fill="white"/>
    <path d="M5.88867 12.5156H13.2506V13.988H5.88867V12.5156Z" fill="white"/>
    <path d="M27.9766 13.9883H29.4489V16.933H27.9766V13.9883Z" fill="white"/>
    <path d="M26.5039 16.9326H27.9763V18.405H26.5039V16.9326Z" fill="white"/>
    <path d="M25.0293 18.4043H26.5017V27.2386H25.0293V18.4043Z" fill="white"/>
    <path d="M23.5586 27.2393H25.031V28.7116H23.5586V27.2393Z" fill="white"/>
    <path d="M25.0293 28.7119H32.3912V30.1843H25.0293V28.7119Z" fill="white"/>
    <path d="M4.41797 13.9883H5.89035V16.933H4.41797V13.9883Z" fill="white"/>
    <path d="M5.88867 16.9326H7.36105V18.405H5.88867V16.9326Z" fill="white"/>
    <path d="M7.36328 18.4043H8.83566V27.2386H7.36328V18.4043Z" fill="white"/>
    <path d="M8.83203 27.2393H10.3044V28.7116H8.83203V27.2393Z" fill="white"/>
    <path d="M1.47266 28.7119H8.83457V30.1843H1.47266V28.7119Z" fill="white"/>
    <path d="M0 11.042H1.47238V28.7106H0V11.042Z" fill="white"/>
    <path d="M32.3926 11.042H33.865V28.7106H32.3926V11.042Z" fill="white"/>
    <path d="M2.94336 5.89062H4.41574V9.57158H2.94336V5.89062Z" fill="white"/>
    <path d="M29.4473 5.89062H30.9196V9.57158H29.4473V5.89062Z" fill="white"/>
    <path d="M4.41797 4.41602H5.89035V5.8884H4.41797V4.41602Z" fill="white"/>
    <path d="M27.9766 4.41602H29.4489V5.8884H27.9766V4.41602Z" fill="white"/>
    <path d="M5.88867 2.94434H8.83344V4.41672H5.88867V2.94434Z" fill="white"/>
    <path d="M25.0293 2.94434H27.9741V4.41672H25.0293V2.94434Z" fill="white"/>
    <path d="M8.83203 1.47168H10.3044V2.94406H8.83203V1.47168Z" fill="white"/>
    <path d="M23.5586 1.47168H25.031V2.94406H23.5586V1.47168Z" fill="white"/>
    <path d="M10.3066 0H23.5581V1.47238H10.3066V0Z" fill="white"/>
    <path d="M1.47266 9.57031H2.94504V11.0427H1.47266V9.57031Z" fill="white"/>
    <path d="M30.9199 9.57031H32.3923V11.0427H30.9199V9.57031Z" fill="white"/>
  </g>
</svg>