<svg xmlns="http://www.w3.org/2000/svg" width="55" height="55" viewBox="0 0 29 29" fill="none">
  <g filter="url(#filter0_di_2254_487)">
    <circle cx="14.8759" cy="13.9286" r="12.6844" fill="#0E0E0E"/>
    <circle cx="14.8759" cy="13.9286" r="12.918" stroke="url(#paint0_linear_2254_487)" stroke-width="0.467108"/>
  </g>
  <path d="M10.9261 18.0382C10.7803 17.9714 10.6871 17.8273 10.6871 17.6694V16.0394C9.54812 16.0338 8.62305 15.1222 8.62305 14.0019V10.3344C8.62305 9.21099 9.55379 8.29688 10.6976 8.29688H16.0914C17.2352 8.29688 18.166 9.21099 18.166 10.3344V11.4401V11.5569H18.2827H19.6026L19.7644 11.6563L19.7645 11.6564L19.8255 11.557L10.9261 18.0382ZM10.9261 18.0382C10.982 18.0641 11.0419 18.0769 11.102 18.0769C11.1972 18.0769 11.2917 18.0446 11.3679 17.9825L10.9261 18.0382ZM14.1336 13.5819V13.5944V15.2244V15.3412H14.0169H13.5915C13.521 15.3412 13.4533 15.3654 13.3996 15.4091L14.1336 13.5819ZM14.1336 13.5819C14.1405 12.5307 15.0143 11.6737 16.0914 11.6737H17.3361H17.4529V11.5569V10.3344C17.4529 9.59375 16.8403 8.99513 16.0914 8.99513H10.6976C9.94861 8.99513 9.33605 9.59375 9.33605 10.3344V14.0019C9.33605 14.7426 9.94861 15.3412 10.6976 15.3412H11.102C11.2689 15.3412 11.4001 15.4731 11.4001 15.6319V16.7995V17.046L11.5909 16.8898L13.3995 15.4092L14.1336 13.5819ZM19.8256 11.6737H19.8386C20.9139 11.6806 21.7833 12.5417 21.7833 13.5943V16.0393C21.7833 17.0934 20.9122 17.9548 19.8355 17.9601L19.7193 17.9606V18.0768V19.2993C19.7193 19.4125 19.6514 19.5167 19.5438 19.5641L19.5432 19.5644C19.5047 19.5816 19.4631 19.59 19.4211 19.59C19.349 19.59 19.2782 19.5644 19.2226 19.5159L19.2226 19.5158L17.4733 17.9889L17.4403 17.9601H17.3965H16.0914C15.0101 17.9601 14.1336 17.0963 14.1336 16.0394V15.9226H14.0168H13.7417H13.7L13.6677 15.949L11.294 17.892C11.294 17.892 11.294 17.892 11.294 17.892C11.2392 17.9367 11.171 17.9601 11.102 17.9601C11.0585 17.9601 11.0154 17.9509 10.9752 17.9323L10.9748 17.9321C10.8698 17.8839 10.8039 17.7809 10.8039 17.6694V16.0394V15.9232L10.6877 15.9226C9.61093 15.9173 8.73982 15.0559 8.73982 14.0019V10.3344C8.73982 9.27746 9.61629 8.41365 10.6976 8.41365H16.0914C17.1727 8.41365 18.0492 9.27746 18.0492 10.3344V11.5569V11.6737H18.166H19.8256ZM18.9295 18.4801L19.123 18.649V18.3921V17.6694C19.123 17.5105 19.2543 17.3787 19.4212 17.3787H19.8256C20.5745 17.3787 21.1871 16.78 21.1871 16.0394L21.1871 13.5944C21.1871 12.8537 20.5745 12.2551 19.8256 12.2551H16.0914C15.3424 12.2551 14.7299 12.8537 14.7299 13.5944V16.0394C14.7299 16.78 15.3424 17.3787 16.0914 17.3787H17.5541C17.6278 17.3787 17.6984 17.4052 17.7526 17.4528L17.7528 17.453L18.9295 18.4801Z" stroke="#8E8E8E" stroke-width="0.233554"/>
  <defs>
    <filter id="filter0_di_2254_487" x="0.790392" y="0.777344" width="28.1712" height="28.1712" filterUnits="userSpaceOnUse" color-interpolation-filters="sRGB">
      <feFlood flood-opacity="0" result="BackgroundImageFix"/>
      <feColorMatrix in="SourceAlpha" type="matrix" values="0 0 0 0 0 0 0 0 0 0 0 0 0 0 0 0 0 0 127 0" result="hardAlpha"/>
      <feOffset dy="0.934217"/>
      <feGaussianBlur stdDeviation="0.467108"/>
      <feComposite in2="hardAlpha" operator="out"/>
      <feColorMatrix type="matrix" values="0 0 0 0 0 0 0 0 0 0 0 0 0 0 0 0 0 0 0.25 0"/>
      <feBlend mode="normal" in2="BackgroundImageFix" result="effect1_dropShadow_2254_487"/>
      <feBlend mode="normal" in="SourceGraphic" in2="effect1_dropShadow_2254_487" result="shape"/>
      <feColorMatrix in="SourceAlpha" type="matrix" values="0 0 0 0 0 0 0 0 0 0 0 0 0 0 0 0 0 0 127 0" result="hardAlpha"/>
      <feOffset dx="0.700663" dy="0.700663"/>
      <feGaussianBlur stdDeviation="2.33554"/>
      <feComposite in2="hardAlpha" operator="arithmetic" k2="-1" k3="1"/>
      <feColorMatrix type="matrix" values="0 0 0 0 0.275 0 0 0 0 0.275 0 0 0 0 0.275 0 0 0 1 0"/>
      <feBlend mode="normal" in2="shape" result="effect2_innerShadow_2254_487"/>
    </filter>
    <linearGradient id="paint0_linear_2254_487" x1="2.19845" y1="-11.8841" x2="27.5853" y2="-11.8304" gradientUnits="userSpaceOnUse">
      <stop stop-color="#FF7246"/>
      <stop offset="0.140039" stop-color="#FFD646"/>
      <stop offset="0.301501" stop-color="#46FFBC"/>
      <stop offset="0.483796" stop-color="#467AFF"/>
      <stop offset="0.681716" stop-color="#9E71FF"/>
      <stop offset="0.837969" stop-color="#FC54FF"/>
    </linearGradient>
  </defs>
</svg>
