<svg
  xmlns="http://www.w3.org/2000/svg"
  width="235"
  height="275"
  viewBox="0 0 235 275"
  fill="none"
>
  <g style="mix-blend-mode: overlay" opacity="0.1">
    <path
      fill-rule="evenodd"
      clip-rule="evenodd"
      d="M226.973 97.6452C220.509 87.8969 217.865 76.1084 219.547 64.5335L222.852 41.7764C223.917 34.4466 222.608 26.9684 219.116 20.4364L217.652 17.6974C208.068 -0.231499 184.457 -4.87509 168.797 8.0889L166.585 9.91989C161.655 14.0012 158.481 19.8203 157.719 26.1749C155.938 41.0214 141.593 50.9818 127.06 47.4621L122.146 46.2719C117.906 45.245 113.477 45.2877 109.257 46.3963L107.416 46.8801C92.9354 50.6842 78.4317 40.82 76.6489 25.955C75.9031 19.7368 72.8205 14.0348 68.0262 10.0053L65.881 8.2024C50.43 -4.78374 26.9438 -0.255453 17.4285 17.5444L15.8503 20.4966C12.3794 26.9895 11.0779 34.4229 12.1363 41.7088L15.452 64.5339C17.1333 76.1086 14.4897 87.8969 8.02659 97.6451C0.389828 109.163 -1.85789 123.434 1.86863 136.742L3.97333 144.259C7.44431 156.654 14.5391 167.73 24.3478 176.066L42.3699 191.382C52.6562 200.124 61.066 210.858 67.0927 222.937L81.6379 252.089C86.5939 262.023 95.3672 269.521 105.951 272.869L106.853 273.154C114.744 275.65 123.233 275.513 131.039 272.763C140.383 269.471 148.081 262.674 152.504 253.809L167.907 222.937C173.934 210.858 182.344 200.124 192.63 191.382L210.653 176.066C220.461 167.73 227.556 156.654 231.027 144.259L233.131 136.743C236.858 123.435 234.61 109.163 226.973 97.6452ZM81.2313 170.001C81.2311 176.102 73.7927 179.087 69.5752 174.679L68.2154 173.258C67.8263 172.851 67.393 172.489 66.9236 172.179L39.3304 153.931C34.8821 150.989 32.6718 145.636 33.7486 140.413C34.9986 134.35 40.3371 130 46.5277 130H46.8709C51.1791 130 55.2273 132.061 57.762 135.544L79.9362 166.02C80.778 167.177 81.2314 168.571 81.2313 170.001ZM122.514 255.314C119.424 257.13 115.587 257.109 112.518 255.258L111.002 254.344C107.902 252.475 106.493 248.719 107.598 245.271C108.635 242.039 111.641 239.846 115.035 239.846H119.897C123.181 239.846 126.12 241.885 127.271 244.96C128.611 248.541 127.184 252.568 123.887 254.506L122.514 255.314ZM164.464 172.164C163.984 172.484 163.545 172.861 163.156 173.287L162.223 174.307C158.156 178.756 150.745 175.878 150.745 169.851C150.745 168.515 151.15 167.21 151.907 166.11L172.699 135.872C175.227 132.196 179.403 130 183.864 130H184.153C190.26 130 195.567 134.193 196.98 140.134C198.256 145.5 196.057 151.093 191.469 154.154L164.464 172.164Z"
      fill="white"
    />
  </g>
</svg>