<svg xmlns="http://www.w3.org/2000/svg" width="55" height="55" viewBox="0 0 29 29" fill="none">
  <g filter="url(#filter0_di_2254_481)">
    <circle cx="14.7938" cy="13.6844" r="12.6844" fill="#0E0E0E"/>
    <circle cx="14.7938" cy="13.6844" r="12.918" stroke="url(#paint0_linear_2254_481)" stroke-width="0.467108"/>
  </g>
  <path d="M18.4335 11.1549C19.5211 11.1549 20.4424 12.2283 20.4496 13.5982L20.4496 13.6144C20.4496 14.992 19.5253 16.0739 18.4334 16.0738C18.0015 16.0738 17.5884 15.9098 17.2378 15.594C16.9161 15.3041 16.6661 14.8943 16.532 14.4326L16.5075 14.3483L16.4198 14.3483L12.9136 14.3483L12.7969 14.3483L12.7969 14.4651L12.7969 15.3344L11.8257 15.3344L11.8257 14.4651L11.8257 14.3483L11.7089 14.3483L11.1789 14.3483L11.0622 14.3483L11.0622 14.4651L11.0622 15.3344L10.0911 15.3344L10.0911 14.4651L10.0911 14.3483L9.97437 14.3483L9.07067 14.3483L9.07067 12.8804L16.4199 12.8803L16.5076 12.8803L16.532 12.7961C16.6661 12.3344 16.9161 11.9246 17.2379 11.6347C17.5884 11.3189 18.0015 11.1549 18.4335 11.1549ZM19.4537 12.9928C19.1391 12.9928 18.919 13.2932 18.919 13.6144C18.919 13.9357 19.1391 14.2361 19.4537 14.2361C19.7684 14.2361 19.9887 13.9357 19.9887 13.6144C19.9887 13.2931 19.7684 12.9928 19.4537 12.9928Z" stroke="#8E8E8E" stroke-width="0.233554"/>
  <path d="M17.4906 10.496L14.3254 7.83256L14.2502 7.7693L14.175 7.83256L11.0095 10.496L11.0095 9.45997C11.0095 9.45817 11.0097 9.45674 11.01 9.45579L14.2502 6.72982L17.4901 9.45592C17.4904 9.45687 17.4906 9.45829 17.4906 9.46009L17.4906 10.496ZM11.0074 9.45801L11.0074 9.45797C11.0074 9.45799 11.0074 9.45801 11.0073 9.45803L11.0074 9.45801Z" stroke="#8E8E8E" stroke-width="0.233554"/>
  <path d="M14.175 19.3964L14.2502 19.4596L14.3254 19.3964L17.4906 16.733L17.4906 17.769C17.4906 17.7708 17.4904 17.7722 17.4901 17.7731L14.2603 20.4906L14.2602 20.4906L14.2502 20.4991L11.01 17.7731C11.0097 17.7722 11.0094 17.7708 11.0094 17.769L11.0094 16.733L14.175 19.3964ZM17.4927 17.7709L17.4927 17.7709C17.4927 17.7709 17.4927 17.7709 17.4928 17.7709L17.4927 17.7709Z" stroke="#8E8E8E" stroke-width="0.233554"/>
  <defs>
    <filter id="filter0_di_2254_481" x="0.708361" y="0.533203" width="28.1712" height="28.1712" filterUnits="userSpaceOnUse" color-interpolation-filters="sRGB">
      <feFlood flood-opacity="0" result="BackgroundImageFix"/>
      <feColorMatrix in="SourceAlpha" type="matrix" values="0 0 0 0 0 0 0 0 0 0 0 0 0 0 0 0 0 0 127 0" result="hardAlpha"/>
      <feOffset dy="0.934217"/>
      <feGaussianBlur stdDeviation="0.467108"/>
      <feComposite in2="hardAlpha" operator="out"/>
      <feColorMatrix type="matrix" values="0 0 0 0 0 0 0 0 0 0 0 0 0 0 0 0 0 0 0.25 0"/>
      <feBlend mode="normal" in2="BackgroundImageFix" result="effect1_dropShadow_2254_481"/>
      <feBlend mode="normal" in="SourceGraphic" in2="effect1_dropShadow_2254_481" result="shape"/>
      <feColorMatrix in="SourceAlpha" type="matrix" values="0 0 0 0 0 0 0 0 0 0 0 0 0 0 0 0 0 0 127 0" result="hardAlpha"/>
      <feOffset dx="0.700663" dy="0.700663"/>
      <feGaussianBlur stdDeviation="2.33554"/>
      <feComposite in2="hardAlpha" operator="arithmetic" k2="-1" k3="1"/>
      <feColorMatrix type="matrix" values="0 0 0 0 0.275 0 0 0 0 0.275 0 0 0 0 0.275 0 0 0 1 0"/>
      <feBlend mode="normal" in2="shape" result="effect2_innerShadow_2254_481"/>
    </filter>
    <linearGradient id="paint0_linear_2254_481" x1="2.11642" y1="-12.1282" x2="27.5033" y2="-12.0746" gradientUnits="userSpaceOnUse">
      <stop stop-color="#FF7246"/>
      <stop offset="0.140039" stop-color="#FFD646"/>
      <stop offset="0.301501" stop-color="#46FFBC"/>
      <stop offset="0.483796" stop-color="#467AFF"/>
      <stop offset="0.681716" stop-color="#9E71FF"/>
      <stop offset="0.837969" stop-color="#FC54FF"/>
    </linearGradient>
  </defs>
</svg>