<svg xmlns="http://www.w3.org/2000/svg" width="103" height="35" viewBox="0 0 103 35" fill="none">
  <g clip-path="url(#clip0_1314_2790)" filter="url(#filter0_d_1314_2790)">
    <path d="M81.113 11.1925V10.3218H75.9692V13.3611H77.0192V15.6964C76.7222 15.3012 76.34 14.9491 75.871 14.6399C75.4026 14.3311 74.8657 14.1765 74.2601 14.1765C73.0501 14.1765 72.139 14.6464 71.528 15.5853C70.9164 16.5244 70.6113 17.8585 70.6113 19.5886C70.6113 21.3183 70.9164 22.6526 71.528 23.5914C72.139 24.5308 73.0499 24.9998 74.2601 24.9998C74.8657 24.9998 75.4026 24.8454 75.871 24.5366C76.3402 24.2278 76.7224 23.8755 77.0192 23.4802V24.9998H81.8966V22.7968V21.7013V11.1925H81.113ZM77.0192 20.5151C77.0192 20.9229 76.9331 21.2232 76.7613 21.4142C76.5891 21.6058 76.3308 21.7013 75.9866 21.7013C75.6424 21.7013 75.3843 21.6058 75.2128 21.4142C75.0406 21.223 74.9545 20.9227 74.9545 20.5151V18.6618C74.9545 18.2541 75.0406 17.9546 75.2128 17.7632C75.3841 17.5716 75.6424 17.4759 75.9866 17.4759C76.3308 17.4759 76.5889 17.5716 76.7613 17.7632C76.9331 17.9548 77.0192 18.2543 77.0192 18.6618V20.5151Z" fill="white"/>
    <path d="M23.5527 23.3394L23.5999 18.6581C23.6297 18.2788 23.5999 17.8842 23.5999 17.4691C23.5999 14.8623 23.0093 12.9654 21.8285 11.7795C20.6472 10.5929 18.9719 10 16.7999 10C14.6279 10 12.9517 10.5929 11.7715 11.7793C10.6208 12.9351 10.0327 14.7679 10.0033 17.2727H10V23.3394H11.5585C11.582 23.3673 11.608 23.3927 11.6327 23.4202V25.0002H21.9664V23.4202C21.9915 23.3931 22.0171 23.3673 22.0414 23.3394H23.5527ZM15.5895 14.6704C15.5895 14.201 15.6902 13.8547 15.8921 13.6324C16.0936 13.4102 16.3966 13.2987 16.7999 13.2987C17.2031 13.2987 17.5059 13.4102 17.7072 13.6324C17.9091 13.8547 18.0102 14.201 18.0102 14.6704V20.2676C18.0102 20.7371 17.9091 21.0831 17.7072 21.3055C17.5057 21.5274 17.2031 21.6392 16.7999 21.6392C16.3966 21.6392 16.0936 21.5309 15.8921 21.3148C15.6902 21.0987 15.5895 20.7494 15.5895 20.2676V14.6704Z" fill="white"/>
    <path d="M43.5991 14.436V14.6396V16.0445H42.0377C42.0369 16.0458 42.0365 16.0473 42.0352 16.0484V16.0445V14.6952H37.1582V17.7349H37.9414V21.9608H37.1582V24.9999H43.6376V21.9608H42.0352V20.3483C42.0352 19.5452 42.2371 18.9395 42.6404 18.5318C43.0436 18.1241 43.6193 17.9203 44.3671 17.9203C44.9249 17.9203 45.4467 18.0251 45.9337 18.2354V16.0646V14.6954V14.4363H43.5991V14.436Z" fill="white"/>
    <path d="M52.8006 23.3705L52.9285 23.6344H54.3643V24.9999H58.001V21.9608H57.2357L55.5268 19.4958L57.0398 17.7351H57.7697V14.6954H54.0139L51.8061 18.1056H51.3794V10.5811H46.502V13.6206H47.2854V21.9608H46.502V24.9999H51.3794V21.4416H51.8061L51.9621 21.743L52.8006 23.3705Z" fill="white"/>
    <path d="M92.9991 20.2557V18.9215C92.9991 17.5746 92.6283 16.4471 91.8869 15.539C91.1449 14.631 89.9377 14.1768 88.2642 14.1768C86.5788 14.1768 85.2616 14.6373 84.3124 15.5574C83.3633 16.4781 82.8887 17.8219 82.8887 19.5888V23.3719H84.0861H84.872V25.0002H92.6853V24.08C92.6891 24.0778 92.6926 24.0756 92.6968 24.0737V21.1085C92.2097 21.2815 91.6399 21.4235 90.9875 21.5348C90.3347 21.6461 89.6463 21.7016 88.9228 21.7016C88.3176 21.7016 87.8842 21.5937 87.6234 21.3772C87.3622 21.1611 87.2318 20.8244 87.2318 20.3668V20.256L92.9991 20.2557ZM87.232 17.9945C87.232 17.587 87.3181 17.2875 87.4899 17.0959C87.6617 16.9047 87.9196 16.8087 88.2642 16.8087C88.6081 16.8087 88.8664 16.9012 89.0384 17.0868C89.2106 17.2719 89.2967 17.5748 89.2967 17.9945V18.2169H87.232V17.9945Z" fill="white"/>
    <path d="M68.6569 18.2268C68.6517 17.3698 68.5026 16.6507 68.2073 16.0712C68.2031 16.0639 68.1987 16.0576 68.1946 16.05C68.1388 15.9424 68.0792 15.8382 68.013 15.7404C67.998 15.7181 67.9806 15.699 67.9652 15.6773C67.9072 15.5966 67.8485 15.5162 67.7836 15.4422C67.7443 15.3974 67.6988 15.3573 67.6566 15.3149C67.611 15.269 67.5684 15.2205 67.5197 15.1776C67.0449 14.7605 66.373 14.4738 65.5043 14.3175C64.9836 14.2235 64.3913 14.1768 63.7281 14.1768C63.0279 14.1768 62.3102 14.2263 61.5742 14.3253C60.839 14.4243 60.1563 14.554 59.5274 14.7144V18.1246C60.0375 17.9271 60.598 17.7697 61.2094 17.6521C61.8206 17.5348 62.3934 17.4761 62.9272 17.4761C63.4987 17.4761 63.9244 17.5352 64.2047 17.6532C64.2445 17.6703 64.2815 17.6883 64.3156 17.7076C64.5886 17.8624 64.7434 18.1495 64.7787 18.5694C61.9221 18.6159 60.1365 19.3015 59.4215 20.6265C59.1838 21.0684 59.0645 21.5809 59.0645 22.1649C59.0645 22.2661 59.0688 22.3641 59.0755 22.4601C59.0788 22.5116 59.0848 22.5608 59.0904 22.6106C59.0946 22.6495 59.0986 22.6892 59.1038 22.7268C59.1127 22.7925 59.1241 22.8559 59.1362 22.9185C59.1395 22.9354 59.1427 22.9518 59.1464 22.9683C59.2581 23.4914 59.4835 23.9232 59.8296 24.2586C60.1111 24.531 60.4522 24.7255 60.8478 24.8478C60.86 24.8517 60.8721 24.8549 60.8848 24.8588C60.9725 24.8846 61.063 24.9071 61.1562 24.9253C61.1784 24.9299 61.2001 24.9346 61.2223 24.9385C61.3097 24.9541 61.3995 24.9665 61.4912 24.9762C61.5176 24.9788 61.5436 24.9825 61.5704 24.9846C61.6875 24.9944 61.8065 25.0002 61.9302 25.0002C62.6065 25.0002 63.1793 24.8458 63.6484 24.5371C63.7651 24.4598 63.8764 24.3801 63.9799 24.2974C64.2927 24.0494 64.5471 23.7777 64.7432 23.4808V25.0005H67.878H69.4422V21.7016V18.2268H68.6569ZM64.7428 20.5154C64.7428 21.0097 64.6596 21.393 64.493 21.6645C64.3268 21.9365 64.0899 22.0727 63.7813 22.0727C63.5555 22.0727 63.3808 22.0075 63.2562 21.8778C63.2254 21.8453 63.1978 21.8105 63.1745 21.773C63.1042 21.6608 63.0693 21.5259 63.0693 21.3687C63.0693 21.0227 63.2142 20.7754 63.5051 20.6273C63.7959 20.4788 64.2083 20.4049 64.7428 20.4049V20.5154Z" fill="white"/>
    <path d="M31.4675 14.6953V17.4754V20.5149C31.4675 20.9226 31.3818 21.2225 31.2092 21.4135C31.0378 21.6056 30.7791 21.7011 30.4349 21.7011C30.0908 21.7011 29.8327 21.6056 29.6607 21.4135C29.4885 21.2223 29.4024 20.9224 29.4024 20.5149V14.6953H24.5254V17.4754H25.309V21.3862C25.309 22.5107 25.5548 23.3937 26.0471 24.0366C26.5402 24.6791 27.2782 25 28.2636 25H31.4675H31.4931V23.6352H33.0882V25H35.5615V21.7011V14.6953H31.4675Z" fill="white"/>
  </g>
  <defs>
    <clipPath id="clip0_1314_2790">
      <rect width="83" height="15" fill="white" transform="translate(10 10)"/>
    </clipPath>
  </defs>
</svg>