<svg xmlns="http://www.w3.org/2000/svg" width="55" height="55" viewBox="0 0 29 30" fill="none">
  <g filter="url(#filter0_di_2254_493)">
    <circle cx="14.2528" cy="14.1083" r="12.6844" fill="#0E0E0E"/>
    <circle cx="14.2528" cy="14.1083" r="12.918" stroke="url(#paint0_linear_2254_493)" stroke-width="0.467108"/>
  </g>
  <path d="M7.28645 11.0672V11.0666C7.28437 10.7147 7.42574 10.3764 7.6794 10.1277C7.93072 9.88564 8.26906 9.75078 8.62115 9.75277C8.62116 9.75277 8.62117 9.75277 8.62117 9.75277L8.62184 9.636C9.76803 9.64276 10.9014 9.39834 11.94 8.92038L7.28645 11.0672ZM7.28645 11.0672L7.28651 12.8418C7.28886 14.3495 7.69963 15.8294 8.47639 17.1286C9.25315 18.4278 10.368 19.4992 11.7057 20.2321L11.7058 20.2322L14.1164 21.5561L14.1164 21.5561L14.118 21.5569C14.2107 21.6097 14.316 21.6375 14.4233 21.6375C14.5305 21.6375 14.6358 21.6097 14.7286 21.5569L14.7286 21.5569L14.7304 21.5559L17.1553 20.2321C18.4931 19.4992 19.6078 18.4277 20.3847 17.1286C21.1614 15.8294 21.5722 14.3496 21.5745 12.8419V11.0672H21.5745L21.5746 11.066C21.5784 10.7149 21.4393 10.3766 21.1879 10.1267L21.1879 10.1267L21.1871 10.126C20.9403 9.87627 20.5975 9.74046 20.2432 9.75273L20.2407 9.75277C19.0774 9.76836 17.925 9.53032 16.8659 9.05556L16.8659 9.05557L16.8649 9.05508C16.2882 8.78957 15.7481 8.45267 15.2578 8.05254C15.0211 7.86604 14.7268 7.76424 14.4232 7.76424C14.1195 7.76424 13.8249 7.86622 13.5881 8.05301C13.0984 8.4425 12.5609 8.76963 11.9884 9.02669L7.28645 11.0672ZM14.8513 14.2461C15.1119 14.3944 15.2734 14.6692 15.2734 14.9674V17.1142C15.2734 17.4124 15.1119 17.6872 14.8513 17.8355L14.0097 14.2461C14.2701 14.0979 14.5908 14.0979 14.8513 14.2461ZM14.8513 14.2461L14.7935 14.3476M14.8513 14.2461C14.8513 14.2461 14.8513 14.2461 14.8513 14.2461L14.7935 14.3476M14.7935 14.3476C15.0182 14.4754 15.1566 14.7117 15.1566 14.9674V17.1142C15.1566 17.3699 15.0182 17.6062 14.7935 17.734V14.3476ZM14.0602 21.6584L11.6496 20.3345L14.7863 21.6584C14.6759 21.7212 14.5507 21.7543 14.4233 21.7543C14.2958 21.7543 14.1706 21.7212 14.0602 21.6584ZM15.1543 13.5362L15.1542 13.5362C14.962 13.7257 14.7016 13.8318 14.4305 13.8318C14.1594 13.8318 13.899 13.7257 13.7068 13.5362L13.7067 13.5362C13.5145 13.3467 13.4061 13.0893 13.4061 12.8205C13.4061 12.5518 13.5145 12.2944 13.7067 12.1048L13.7068 12.1048C13.899 11.9154 14.1594 11.8092 14.4305 11.8092C14.7016 11.8092 14.962 11.9154 15.1542 12.1048L15.1543 12.1048C15.3465 12.2943 15.4549 12.5518 15.4549 12.8205C15.4549 13.0893 15.3465 13.3467 15.1543 13.5362Z" stroke="#8E8E8E" stroke-width="0.233554"/>
  <defs>
    <filter id="filter0_di_2254_493" x="0.167346" y="0.957031" width="28.1712" height="28.1712" filterUnits="userSpaceOnUse" color-interpolation-filters="sRGB">
      <feFlood flood-opacity="0" result="BackgroundImageFix"/>
      <feColorMatrix in="SourceAlpha" type="matrix" values="0 0 0 0 0 0 0 0 0 0 0 0 0 0 0 0 0 0 127 0" result="hardAlpha"/>
      <feOffset dy="0.934217"/>
      <feGaussianBlur stdDeviation="0.467108"/>
      <feComposite in2="hardAlpha" operator="out"/>
      <feColorMatrix type="matrix" values="0 0 0 0 0 0 0 0 0 0 0 0 0 0 0 0 0 0 0.25 0"/>
      <feBlend mode="normal" in2="BackgroundImageFix" result="effect1_dropShadow_2254_493"/>
      <feBlend mode="normal" in="SourceGraphic" in2="effect1_dropShadow_2254_493" result="shape"/>
      <feColorMatrix in="SourceAlpha" type="matrix" values="0 0 0 0 0 0 0 0 0 0 0 0 0 0 0 0 0 0 127 0" result="hardAlpha"/>
      <feOffset dx="0.700663" dy="0.700663"/>
      <feGaussianBlur stdDeviation="2.33554"/>
      <feComposite in2="hardAlpha" operator="arithmetic" k2="-1" k3="1"/>
      <feColorMatrix type="matrix" values="0 0 0 0 0.275 0 0 0 0 0.275 0 0 0 0 0.275 0 0 0 1 0"/>
      <feBlend mode="normal" in2="shape" result="effect2_innerShadow_2254_493"/>
    </filter>
    <linearGradient id="paint0_linear_2254_493" x1="1.57541" y1="-11.7044" x2="26.9623" y2="-11.6507" gradientUnits="userSpaceOnUse">
      <stop stop-color="#FF7246"/>
      <stop offset="0.140039" stop-color="#FFD646"/>
      <stop offset="0.301501" stop-color="#46FFBC"/>
      <stop offset="0.483796" stop-color="#467AFF"/>
      <stop offset="0.681716" stop-color="#9E71FF"/>
      <stop offset="0.837969" stop-color="#FC54FF"/>
    </linearGradient>
  </defs>
</svg>