<svg width="35" height="33" viewBox="0 0 35 33" fill="none" xmlns="http://www.w3.org/2000/svg">
<g style="mix-blend-mode:overlay">
<path d="M34.0645 0H27.571V1.5675H25.9529V3.135H24.3348V4.7025H22.7061V6.29063H21.0774V7.85813H19.4594V9.42563H17.8413V11.0034H16.2232V9.42563H14.5945V7.85813H12.9765V6.29063H11.3584V4.71281H9.72968V3.14531H8.11161V1.57781H6.49355V0H0V6.29063H1.61806V7.85813H3.23613V9.42563H4.85419V11.0034H6.49355V12.5813H8.11161V14.1591H9.72968V15.7369H11.3584V17.3044H9.72968V18.8822H8.11161V15.7884H6.49355V20.4188H8.11161V23.5744H6.49355V25.1522H4.86484V26.7094H3.24677V28.2872H0V33H4.86484V29.9063H6.49355V28.2872H8.11161V26.7094H9.74032V25.1419H12.9977V26.73H21.0881V25.1419H24.3455V26.7094H25.9742V28.2872H27.571V29.9063H29.1997V33H34.0645V28.2872H30.871V26.7094H29.1997V25.1419H27.571V23.5744H25.9529V20.4291H27.571V15.7163H25.9529V18.81H24.3348V17.2838H22.7061V15.7163H24.3348V14.1384H25.9529V12.5709H27.571V11.0034H29.1997V9.42563H30.871V7.85813H32.489V6.29063H34.0645V0ZM16.2232 25.1419H14.6052V23.5744H16.2339V21.9966H17.8519V23.5744H19.4806V25.1419H16.2232Z" fill="white"/>
</g>
</svg>
