<svg xmlns="http://www.w3.org/2000/svg" width="55" height="55" viewBox="0 0 29 29" fill="none">
  <g filter="url(#filter0_di_2254_490)">
    <circle cx="14.3348" cy="13.3153" r="12.6844" fill="#0E0E0E"/>
    <circle cx="14.3348" cy="13.3153" r="12.918" stroke="url(#paint0_linear_2254_490)" stroke-width="0.467108"/>
  </g>
  <mask id="path-3-inside-1_2254_490" fill="white">
    <path fill-rule="evenodd" clip-rule="evenodd" d="M12.7971 14.6701C12.5385 14.4142 12.1742 14.2918 11.8115 14.339C11.4488 14.3862 11.129 14.5976 10.9461 14.911C10.7631 15.2245 10.738 15.6042 10.878 15.9386C11.0179 16.2729 11.3072 16.5239 11.6605 16.6176C12.0138 16.7112 12.3911 16.637 12.6813 16.4166C12.9715 16.1963 13.1416 15.8549 13.1416 15.4931C13.142 15.1843 13.018 14.8882 12.7971 14.6701H12.7971ZM11.9653 13.9502H11.9653C12.4501 13.9502 12.9074 14.1733 13.2025 14.5538C13.4976 14.9343 13.5971 15.429 13.4716 15.8924C13.3462 16.3556 13.01 16.7348 12.5622 16.9184C12.1142 17.1019 11.6055 17.069 11.1856 16.8291C10.7657 16.5893 10.4825 16.17 10.4192 15.6945C10.3559 15.2189 10.5198 14.7413 10.8626 14.4021C11.1548 14.1124 11.5516 13.9497 11.9653 13.9502L11.9653 13.9502ZM11.3614 15.6797C11.3206 15.6484 11.2943 15.602 11.2887 15.5512C11.283 15.5003 11.2984 15.4494 11.3315 15.41C11.3645 15.3707 11.4123 15.3463 11.4638 15.3424C11.5154 15.3385 11.5663 15.3555 11.6049 15.3895L11.8696 15.6067L12.38 14.9811V14.9811C12.4118 14.942 12.4579 14.917 12.5083 14.9116C12.5587 14.9062 12.6092 14.9208 12.6486 14.9522C12.6882 14.9836 12.7134 15.0293 12.7189 15.0791C12.7244 15.1289 12.7096 15.1789 12.6778 15.218L12.0455 15.9931L12.0435 15.9954V15.9955C12.0111 16.034 11.9646 16.0582 11.9143 16.0628C11.8638 16.0674 11.8137 16.052 11.7748 16.0199L11.3624 15.6799L11.3614 15.6797ZM10.8689 17.722V19.2456L11.854 18.5744C11.886 18.5516 11.9243 18.5393 11.9637 18.5389C12.003 18.5386 12.0416 18.5502 12.074 18.5724L13.0621 19.2456V17.722C12.9333 17.7707 12.7916 17.7745 12.6603 17.7328C12.6062 17.7177 12.55 17.7116 12.494 17.7146C12.443 17.7365 12.3957 17.7662 12.3539 17.8024C12.248 17.9012 12.111 17.961 11.9658 17.9718C11.8206 17.961 11.6836 17.9012 11.5777 17.8024C11.5358 17.7662 11.4886 17.7366 11.4376 17.7146C11.3814 17.7116 11.3252 17.7177 11.2712 17.7328C11.1399 17.7745 10.9982 17.7707 10.8695 17.722L10.8689 17.722ZM13.4451 17.2547V19.6056C13.4451 19.6537 13.4267 19.7 13.3936 19.7351C13.3605 19.7702 13.3151 19.7916 13.2666 19.7949C13.2182 19.7982 13.1702 19.7831 13.1326 19.7527L11.9651 18.9574L10.7855 19.7612C10.7471 19.7874 10.7003 19.7987 10.654 19.7931C10.6076 19.7875 10.565 19.7654 10.5341 19.7309C10.5031 19.6963 10.486 19.6518 10.4859 19.6056V17.2547C10.4548 17.2441 10.414 17.2343 10.3726 17.2239C10.2342 17.2077 10.106 17.1434 10.0108 17.0426C9.93222 16.9286 9.89659 16.791 9.91023 16.6537C9.91362 16.6004 9.90835 16.5468 9.89467 16.4951C9.86193 16.4528 9.82281 16.4158 9.77867 16.3853C9.65882 16.3093 9.56964 16.1941 9.52666 16.0598C9.50527 15.9216 9.53228 15.7803 9.60323 15.6594C9.6312 15.6071 9.65025 15.5506 9.65958 15.4921C9.6502 15.4337 9.6312 15.3773 9.60323 15.325C9.53228 15.2041 9.50527 15.0628 9.52666 14.9246C9.56963 14.7902 9.65883 14.6751 9.77867 14.5991C9.82281 14.5687 9.86193 14.5316 9.89467 14.4893C9.90835 14.4376 9.91362 14.3841 9.91023 14.3307C9.89659 14.1934 9.93222 14.0557 10.0108 13.9418C10.106 13.8411 10.2342 13.7768 10.3726 13.7605C10.4249 13.7522 10.4757 13.7359 10.523 13.7123C10.5568 13.6717 10.584 13.6262 10.6036 13.5774C10.6506 13.4465 10.7427 13.3361 10.8639 13.266C10.9938 13.2148 11.1377 13.2101 11.2707 13.2527C11.3248 13.2678 11.381 13.2739 11.4371 13.2709C11.4881 13.2489 11.5354 13.2193 11.5772 13.1831C11.6831 13.0843 11.8202 13.0245 11.9653 13.0137C12.1105 13.0245 12.2475 13.0843 12.3534 13.1831C12.3953 13.2193 12.4426 13.2489 12.4935 13.2709C12.5496 13.2739 12.6058 13.2678 12.6598 13.2527C12.7929 13.2101 12.9368 13.2148 13.0667 13.266C13.1879 13.3361 13.28 13.4464 13.3269 13.5774C13.3466 13.6262 13.3738 13.6717 13.4075 13.7123C13.4549 13.7359 13.5057 13.7522 13.5581 13.7605C13.6968 13.7772 13.8251 13.842 13.9202 13.9433C13.9987 14.0573 14.0343 14.1949 14.0206 14.3322C14.0173 14.3856 14.0225 14.4391 14.0361 14.4908C14.0689 14.5331 14.108 14.5702 14.1521 14.6006C14.272 14.6767 14.3612 14.7918 14.4043 14.9261C14.4256 15.0643 14.3986 15.2056 14.3276 15.3266C14.2997 15.3788 14.2807 15.4352 14.2714 15.4937C14.2806 15.5521 14.2996 15.6086 14.3276 15.6609C14.3986 15.7818 14.4256 15.9231 14.4043 16.0613C14.3612 16.1957 14.272 16.3108 14.1521 16.3868C14.108 16.4173 14.0689 16.4544 14.0361 16.4966C14.0225 16.5484 14.0173 16.6019 14.0206 16.6552C14.0343 16.7925 13.9987 16.9302 13.9202 17.0442C13.825 17.1449 13.6969 17.2092 13.5584 17.2255C13.5168 17.2353 13.4752 17.245 13.445 17.2562L13.4451 17.2547ZM13.1026 17.0416V17.0417C13.0543 17.1033 13.014 17.1705 12.9824 17.2419C12.9632 17.2927 12.9349 17.3397 12.8988 17.3805C12.8433 17.3848 12.7876 17.3787 12.7344 17.3627C12.6277 17.3332 12.5156 17.3275 12.4064 17.346C12.3017 17.3766 12.2048 17.4292 12.1224 17.5001C12.0773 17.5418 12.0234 17.5733 11.9647 17.5925C11.906 17.5733 11.8522 17.5418 11.807 17.5001C11.7247 17.4292 11.6278 17.3766 11.5231 17.346C11.4139 17.3275 11.3018 17.3332 11.195 17.3627C11.1419 17.3787 11.0861 17.3848 11.0306 17.3805C10.9947 17.3397 10.9664 17.2927 10.9472 17.2419C10.9156 17.1705 10.8752 17.1033 10.8269 17.0417C10.8231 17.0371 10.8192 17.0326 10.8151 17.0283V17.0283C10.7986 17.0102 10.7808 16.9935 10.7617 16.9782C10.672 16.9151 10.5688 16.8732 10.4601 16.8561C10.4068 16.8487 10.3552 16.8319 10.3079 16.8065C10.2924 16.7553 10.2868 16.7017 10.2912 16.6485C10.2975 16.5396 10.2786 16.4307 10.2361 16.3301C10.1823 16.2359 10.1078 16.1548 10.0181 16.0928C9.96118 16.0466 9.90386 16.0004 9.89763 15.9748C9.90462 15.9173 9.92302 15.8616 9.9518 15.8111C10.0103 15.715 10.0412 15.6049 10.0412 15.4928C10.0412 15.3806 10.0103 15.2706 9.9518 15.1745C9.92302 15.124 9.90462 15.0684 9.89763 15.0108C9.90386 14.9848 9.96112 14.9385 10.0181 14.8928C10.1078 14.8308 10.1823 14.7498 10.2361 14.6556C10.2786 14.5549 10.2975 14.4461 10.2912 14.3371C10.2868 14.2839 10.2924 14.2303 10.3079 14.1791C10.3552 14.1537 10.4068 14.1369 10.4601 14.1295C10.5688 14.1124 10.672 14.0705 10.7617 14.0074C10.843 13.9347 10.9064 13.8445 10.9471 13.7437C10.9663 13.6929 10.9946 13.6459 11.0306 13.6051C11.0861 13.6008 11.1419 13.6069 11.195 13.6229C11.3018 13.6524 11.4139 13.6581 11.5231 13.6396C11.6278 13.609 11.7247 13.5564 11.807 13.4856C11.8522 13.4438 11.906 13.4123 11.9647 13.3932C12.0234 13.4123 12.0773 13.4438 12.1224 13.4856C12.2048 13.5564 12.3016 13.609 12.4064 13.6396C12.5156 13.6581 12.6277 13.6524 12.7344 13.6229C12.7876 13.6069 12.8433 13.6008 12.8988 13.6051C12.9349 13.6459 12.9632 13.6929 12.9824 13.7437C13.0231 13.8444 13.0865 13.9346 13.1678 14.0074C13.2575 14.0706 13.3607 14.1124 13.4695 14.1295C13.5229 14.1369 13.5744 14.1537 13.6218 14.1791C13.637 14.2303 13.6427 14.2839 13.6384 14.3371C13.6257 14.4458 13.6446 14.5559 13.693 14.6543C13.7413 14.7527 13.817 14.8355 13.9112 14.8928C13.9681 14.939 14.0254 14.9852 14.0317 15.0108H14.0316C14.0247 15.0684 14.0063 15.1241 13.9775 15.1745C13.9191 15.2707 13.8883 15.3807 13.8883 15.4928C13.8883 15.605 13.9191 15.715 13.9775 15.8111C14.0063 15.8616 14.0247 15.9172 14.0316 15.9748C14.0254 16.0008 13.9681 16.0471 13.9111 16.0928H13.9112C13.8215 16.1548 13.747 16.2358 13.6932 16.33C13.6505 16.4306 13.6317 16.5395 13.6381 16.6485C13.6423 16.7017 13.6367 16.7553 13.6215 16.8065C13.5741 16.8319 13.5225 16.8487 13.4692 16.8561C13.3604 16.8732 13.2572 16.9151 13.1675 16.9782C13.1483 16.9935 13.1305 17.0102 13.1141 17.0283C13.1099 17.0326 13.1059 17.0371 13.1022 17.0419L13.1026 17.0416ZM14.2702 13.7482L17.577 13.7483C17.6442 13.7464 17.7054 13.7099 17.7384 13.652C17.7715 13.5941 17.7715 13.5234 17.7384 13.4655C17.7054 13.4077 17.6442 13.3712 17.577 13.3692H14.2712C14.2195 13.3678 14.1693 13.3871 14.1322 13.4228C14.0951 13.4585 14.0741 13.5075 14.0741 13.5588C14.0741 13.61 14.0951 13.659 14.1322 13.6947C14.1693 13.7304 14.2195 13.7497 14.2712 13.7483L14.2702 13.7482ZM9.17965 8.25991H10.2814C10.3495 8.25926 10.4146 8.23214 10.4627 8.18441C10.5107 8.13673 10.5379 8.07225 10.5384 8.00487V6.91536L9.17965 8.25991ZM17.0367 18.5519L18.4144 17.6819L17.0018 16.9352L17.0264 18.0749V18.075C17.0271 18.0817 17.0275 18.0885 17.0275 18.0953V18.1075L17.037 18.5521L17.0367 18.5519ZM21.5716 12.7751L19.3694 11.6109H19.368L19.3565 11.6085C19.3534 11.6083 19.3503 11.6087 19.3474 11.6097C19.3404 11.6117 19.3344 11.6163 19.3308 11.6226L19.0286 12.1823C19.0214 12.1961 19.0265 12.2131 19.0401 12.2207L19.1469 12.2772L21.2416 13.3843C21.2483 13.3878 21.2562 13.3886 21.2635 13.3863C21.2705 13.3842 21.2765 13.3795 21.2802 13.3732L21.5839 12.8133C21.5911 12.7996 21.586 12.7825 21.5724 12.7748L21.5716 12.7751ZM18.8021 12.516L17.5246 14.8817L15.9383 14.8818C15.8712 14.8837 15.81 14.9202 15.7769 14.9781C15.7439 15.036 15.7439 15.1067 15.7769 15.1646C15.81 15.2224 15.8712 15.2589 15.9383 15.2608H17.3199L16.7082 16.3937H14.6883C14.6365 16.3922 14.5864 16.4115 14.5493 16.4472C14.5121 16.4829 14.4912 16.5319 14.4912 16.5832C14.4912 16.6344 14.5121 16.6834 14.5493 16.7191C14.5864 16.7548 14.6365 16.7741 14.6883 16.7727H16.6165L16.6411 17.9055L14.1113 17.9055C14.0441 17.9074 13.9829 17.9439 13.9499 18.0018C13.9169 18.0596 13.9169 18.1304 13.9499 18.1882C13.9829 18.2461 14.0442 18.2826 14.1113 18.2845H16.6488L16.6621 18.8954V18.8954C16.6629 18.941 16.6804 18.9847 16.7113 19.0185C16.7423 19.0523 16.7845 19.0739 16.8303 19.0793C16.8761 19.0847 16.9223 19.0734 16.9603 19.0477L17.9255 18.4387L18.8907 17.8291L18.8907 17.8291C18.9153 17.8147 18.9361 17.7949 18.9518 17.7712L18.9525 17.7701L18.9544 17.7672L18.9563 17.7641V17.763L18.958 17.7601V17.7592L18.9591 17.7571L19.2113 17.2901V19.8776L19.2113 19.8775C19.2111 19.9449 19.1839 20.0095 19.1358 20.0572C19.0877 20.1049 19.0223 20.1317 18.9542 20.1319H9.16718C9.09877 20.1315 9.03335 20.1044 8.98516 20.0563C8.93702 20.0083 8.91 19.9433 8.91016 19.8757V8.63745H10.2814C10.451 8.63735 10.6137 8.57072 10.7337 8.45211C10.8537 8.33348 10.9213 8.1726 10.9216 8.00475V6.64746H18.9554C19.0235 6.64776 19.0887 6.67468 19.1368 6.72231C19.185 6.76999 19.2121 6.83452 19.2124 6.9019V11.256C19.1189 11.2905 19.0414 11.3577 18.9945 11.4448L18.6925 12.004V12.0041C18.6471 12.0886 18.6333 12.1862 18.6534 12.2798C18.6736 12.3734 18.7264 12.457 18.8027 12.5159L18.8021 12.516ZM19.7936 13.0462L17.7197 16.8862L17.0625 16.5389L19.1359 12.6987L19.7936 13.0462ZM20.7875 13.5716L19.2438 16.4297C19.2374 16.4394 19.2319 16.4497 19.2274 16.4605L18.7137 17.4121L18.0563 17.064L20.1299 13.2241L20.7872 13.5715L20.7875 13.5716ZM19.8248 11.4234L20.0832 10.9449L20.0832 10.9449C20.1241 10.8696 20.1935 10.8134 20.2762 10.7886C20.3589 10.7637 20.4482 10.7723 20.5245 10.8125L21.6006 11.3813C21.6765 11.4219 21.7331 11.4906 21.7582 11.5723C21.7832 11.6541 21.7746 11.7423 21.7343 11.8179L21.4761 12.2963L19.8248 11.4234ZM10.5464 12.115H17.5772C17.6443 12.1131 17.7055 12.0766 17.7386 12.0187C17.7716 11.9608 17.7716 11.8901 17.7386 11.8323C17.7055 11.7744 17.6443 11.7378 17.5772 11.7359H10.5464C10.4947 11.7345 10.4445 11.7538 10.4074 11.7895C10.3702 11.8252 10.3493 11.8743 10.3493 11.9255C10.3493 11.9767 10.3702 12.0257 10.4074 12.0614C10.4445 12.0971 10.4947 12.1165 10.5464 12.115ZM10.5464 10.4815H17.5772C17.6443 10.4796 17.7055 10.4431 17.7386 10.3852C17.7716 10.3274 17.7716 10.2566 17.7386 10.1988C17.7055 10.1409 17.6443 10.1044 17.5772 10.1025H10.5464C10.4947 10.101 10.4445 10.1203 10.4074 10.156C10.3702 10.1917 10.3493 10.2408 10.3493 10.292C10.3493 10.3432 10.3702 10.3923 10.4074 10.428C10.4445 10.4637 10.4947 10.483 10.5464 10.4815Z"/>
  </mask>
  <path fill-rule="evenodd" clip-rule="evenodd" d="M12.7971 14.6701C12.5385 14.4142 12.1742 14.2918 11.8115 14.339C11.4488 14.3862 11.129 14.5976 10.9461 14.911C10.7631 15.2245 10.738 15.6042 10.878 15.9386C11.0179 16.2729 11.3072 16.5239 11.6605 16.6176C12.0138 16.7112 12.3911 16.637 12.6813 16.4166C12.9715 16.1963 13.1416 15.8549 13.1416 15.4931C13.142 15.1843 13.018 14.8882 12.7971 14.6701H12.7971ZM11.9653 13.9502H11.9653C12.4501 13.9502 12.9074 14.1733 13.2025 14.5538C13.4976 14.9343 13.5971 15.429 13.4716 15.8924C13.3462 16.3556 13.01 16.7348 12.5622 16.9184C12.1142 17.1019 11.6055 17.069 11.1856 16.8291C10.7657 16.5893 10.4825 16.17 10.4192 15.6945C10.3559 15.2189 10.5198 14.7413 10.8626 14.4021C11.1548 14.1124 11.5516 13.9497 11.9653 13.9502L11.9653 13.9502ZM11.3614 15.6797C11.3206 15.6484 11.2943 15.602 11.2887 15.5512C11.283 15.5003 11.2984 15.4494 11.3315 15.41C11.3645 15.3707 11.4123 15.3463 11.4638 15.3424C11.5154 15.3385 11.5663 15.3555 11.6049 15.3895L11.8696 15.6067L12.38 14.9811V14.9811C12.4118 14.942 12.4579 14.917 12.5083 14.9116C12.5587 14.9062 12.6092 14.9208 12.6486 14.9522C12.6882 14.9836 12.7134 15.0293 12.7189 15.0791C12.7244 15.1289 12.7096 15.1789 12.6778 15.218L12.0455 15.9931L12.0435 15.9954V15.9955C12.0111 16.034 11.9646 16.0582 11.9143 16.0628C11.8638 16.0674 11.8137 16.052 11.7748 16.0199L11.3624 15.6799L11.3614 15.6797ZM10.8689 17.722V19.2456L11.854 18.5744C11.886 18.5516 11.9243 18.5393 11.9637 18.5389C12.003 18.5386 12.0416 18.5502 12.074 18.5724L13.0621 19.2456V17.722C12.9333 17.7707 12.7916 17.7745 12.6603 17.7328C12.6062 17.7177 12.55 17.7116 12.494 17.7146C12.443 17.7365 12.3957 17.7662 12.3539 17.8024C12.248 17.9012 12.111 17.961 11.9658 17.9718C11.8206 17.961 11.6836 17.9012 11.5777 17.8024C11.5358 17.7662 11.4886 17.7366 11.4376 17.7146C11.3814 17.7116 11.3252 17.7177 11.2712 17.7328C11.1399 17.7745 10.9982 17.7707 10.8695 17.722L10.8689 17.722ZM13.4451 17.2547V19.6056C13.4451 19.6537 13.4267 19.7 13.3936 19.7351C13.3605 19.7702 13.3151 19.7916 13.2666 19.7949C13.2182 19.7982 13.1702 19.7831 13.1326 19.7527L11.9651 18.9574L10.7855 19.7612C10.7471 19.7874 10.7003 19.7987 10.654 19.7931C10.6076 19.7875 10.565 19.7654 10.5341 19.7309C10.5031 19.6963 10.486 19.6518 10.4859 19.6056V17.2547C10.4548 17.2441 10.414 17.2343 10.3726 17.2239C10.2342 17.2077 10.106 17.1434 10.0108 17.0426C9.93222 16.9286 9.89659 16.791 9.91023 16.6537C9.91362 16.6004 9.90835 16.5468 9.89467 16.4951C9.86193 16.4528 9.82281 16.4158 9.77867 16.3853C9.65882 16.3093 9.56964 16.1941 9.52666 16.0598C9.50527 15.9216 9.53228 15.7803 9.60323 15.6594C9.6312 15.6071 9.65025 15.5506 9.65958 15.4921C9.6502 15.4337 9.6312 15.3773 9.60323 15.325C9.53228 15.2041 9.50527 15.0628 9.52666 14.9246C9.56963 14.7902 9.65883 14.6751 9.77867 14.5991C9.82281 14.5687 9.86193 14.5316 9.89467 14.4893C9.90835 14.4376 9.91362 14.3841 9.91023 14.3307C9.89659 14.1934 9.93222 14.0557 10.0108 13.9418C10.106 13.8411 10.2342 13.7768 10.3726 13.7605C10.4249 13.7522 10.4757 13.7359 10.523 13.7123C10.5568 13.6717 10.584 13.6262 10.6036 13.5774C10.6506 13.4465 10.7427 13.3361 10.8639 13.266C10.9938 13.2148 11.1377 13.2101 11.2707 13.2527C11.3248 13.2678 11.381 13.2739 11.4371 13.2709C11.4881 13.2489 11.5354 13.2193 11.5772 13.1831C11.6831 13.0843 11.8202 13.0245 11.9653 13.0137C12.1105 13.0245 12.2475 13.0843 12.3534 13.1831C12.3953 13.2193 12.4426 13.2489 12.4935 13.2709C12.5496 13.2739 12.6058 13.2678 12.6598 13.2527C12.7929 13.2101 12.9368 13.2148 13.0667 13.266C13.1879 13.3361 13.28 13.4464 13.3269 13.5774C13.3466 13.6262 13.3738 13.6717 13.4075 13.7123C13.4549 13.7359 13.5057 13.7522 13.5581 13.7605C13.6968 13.7772 13.8251 13.842 13.9202 13.9433C13.9987 14.0573 14.0343 14.1949 14.0206 14.3322C14.0173 14.3856 14.0225 14.4391 14.0361 14.4908C14.0689 14.5331 14.108 14.5702 14.1521 14.6006C14.272 14.6767 14.3612 14.7918 14.4043 14.9261C14.4256 15.0643 14.3986 15.2056 14.3276 15.3266C14.2997 15.3788 14.2807 15.4352 14.2714 15.4937C14.2806 15.5521 14.2996 15.6086 14.3276 15.6609C14.3986 15.7818 14.4256 15.9231 14.4043 16.0613C14.3612 16.1957 14.272 16.3108 14.1521 16.3868C14.108 16.4173 14.0689 16.4544 14.0361 16.4966C14.0225 16.5484 14.0173 16.6019 14.0206 16.6552C14.0343 16.7925 13.9987 16.9302 13.9202 17.0442C13.825 17.1449 13.6969 17.2092 13.5584 17.2255C13.5168 17.2353 13.4752 17.245 13.445 17.2562L13.4451 17.2547ZM13.1026 17.0416V17.0417C13.0543 17.1033 13.014 17.1705 12.9824 17.2419C12.9632 17.2927 12.9349 17.3397 12.8988 17.3805C12.8433 17.3848 12.7876 17.3787 12.7344 17.3627C12.6277 17.3332 12.5156 17.3275 12.4064 17.346C12.3017 17.3766 12.2048 17.4292 12.1224 17.5001C12.0773 17.5418 12.0234 17.5733 11.9647 17.5925C11.906 17.5733 11.8522 17.5418 11.807 17.5001C11.7247 17.4292 11.6278 17.3766 11.5231 17.346C11.4139 17.3275 11.3018 17.3332 11.195 17.3627C11.1419 17.3787 11.0861 17.3848 11.0306 17.3805C10.9947 17.3397 10.9664 17.2927 10.9472 17.2419C10.9156 17.1705 10.8752 17.1033 10.8269 17.0417C10.8231 17.0371 10.8192 17.0326 10.8151 17.0283V17.0283C10.7986 17.0102 10.7808 16.9935 10.7617 16.9782C10.672 16.9151 10.5688 16.8732 10.4601 16.8561C10.4068 16.8487 10.3552 16.8319 10.3079 16.8065C10.2924 16.7553 10.2868 16.7017 10.2912 16.6485C10.2975 16.5396 10.2786 16.4307 10.2361 16.3301C10.1823 16.2359 10.1078 16.1548 10.0181 16.0928C9.96118 16.0466 9.90386 16.0004 9.89763 15.9748C9.90462 15.9173 9.92302 15.8616 9.9518 15.8111C10.0103 15.715 10.0412 15.6049 10.0412 15.4928C10.0412 15.3806 10.0103 15.2706 9.9518 15.1745C9.92302 15.124 9.90462 15.0684 9.89763 15.0108C9.90386 14.9848 9.96112 14.9385 10.0181 14.8928C10.1078 14.8308 10.1823 14.7498 10.2361 14.6556C10.2786 14.5549 10.2975 14.4461 10.2912 14.3371C10.2868 14.2839 10.2924 14.2303 10.3079 14.1791C10.3552 14.1537 10.4068 14.1369 10.4601 14.1295C10.5688 14.1124 10.672 14.0705 10.7617 14.0074C10.843 13.9347 10.9064 13.8445 10.9471 13.7437C10.9663 13.6929 10.9946 13.6459 11.0306 13.6051C11.0861 13.6008 11.1419 13.6069 11.195 13.6229C11.3018 13.6524 11.4139 13.6581 11.5231 13.6396C11.6278 13.609 11.7247 13.5564 11.807 13.4856C11.8522 13.4438 11.906 13.4123 11.9647 13.3932C12.0234 13.4123 12.0773 13.4438 12.1224 13.4856C12.2048 13.5564 12.3016 13.609 12.4064 13.6396C12.5156 13.6581 12.6277 13.6524 12.7344 13.6229C12.7876 13.6069 12.8433 13.6008 12.8988 13.6051C12.9349 13.6459 12.9632 13.6929 12.9824 13.7437C13.0231 13.8444 13.0865 13.9346 13.1678 14.0074C13.2575 14.0706 13.3607 14.1124 13.4695 14.1295C13.5229 14.1369 13.5744 14.1537 13.6218 14.1791C13.637 14.2303 13.6427 14.2839 13.6384 14.3371C13.6257 14.4458 13.6446 14.5559 13.693 14.6543C13.7413 14.7527 13.817 14.8355 13.9112 14.8928C13.9681 14.939 14.0254 14.9852 14.0317 15.0108H14.0316C14.0247 15.0684 14.0063 15.1241 13.9775 15.1745C13.9191 15.2707 13.8883 15.3807 13.8883 15.4928C13.8883 15.605 13.9191 15.715 13.9775 15.8111C14.0063 15.8616 14.0247 15.9172 14.0316 15.9748C14.0254 16.0008 13.9681 16.0471 13.9111 16.0928H13.9112C13.8215 16.1548 13.747 16.2358 13.6932 16.33C13.6505 16.4306 13.6317 16.5395 13.6381 16.6485C13.6423 16.7017 13.6367 16.7553 13.6215 16.8065C13.5741 16.8319 13.5225 16.8487 13.4692 16.8561C13.3604 16.8732 13.2572 16.9151 13.1675 16.9782C13.1483 16.9935 13.1305 17.0102 13.1141 17.0283C13.1099 17.0326 13.1059 17.0371 13.1022 17.0419L13.1026 17.0416ZM14.2702 13.7482L17.577 13.7483C17.6442 13.7464 17.7054 13.7099 17.7384 13.652C17.7715 13.5941 17.7715 13.5234 17.7384 13.4655C17.7054 13.4077 17.6442 13.3712 17.577 13.3692H14.2712C14.2195 13.3678 14.1693 13.3871 14.1322 13.4228C14.0951 13.4585 14.0741 13.5075 14.0741 13.5588C14.0741 13.61 14.0951 13.659 14.1322 13.6947C14.1693 13.7304 14.2195 13.7497 14.2712 13.7483L14.2702 13.7482ZM9.17965 8.25991H10.2814C10.3495 8.25926 10.4146 8.23214 10.4627 8.18441C10.5107 8.13673 10.5379 8.07225 10.5384 8.00487V6.91536L9.17965 8.25991ZM17.0367 18.5519L18.4144 17.6819L17.0018 16.9352L17.0264 18.0749V18.075C17.0271 18.0817 17.0275 18.0885 17.0275 18.0953V18.1075L17.037 18.5521L17.0367 18.5519ZM21.5716 12.7751L19.3694 11.6109H19.368L19.3565 11.6085C19.3534 11.6083 19.3503 11.6087 19.3474 11.6097C19.3404 11.6117 19.3344 11.6163 19.3308 11.6226L19.0286 12.1823C19.0214 12.1961 19.0265 12.2131 19.0401 12.2207L19.1469 12.2772L21.2416 13.3843C21.2483 13.3878 21.2562 13.3886 21.2635 13.3863C21.2705 13.3842 21.2765 13.3795 21.2802 13.3732L21.5839 12.8133C21.5911 12.7996 21.586 12.7825 21.5724 12.7748L21.5716 12.7751ZM18.8021 12.516L17.5246 14.8817L15.9383 14.8818C15.8712 14.8837 15.81 14.9202 15.7769 14.9781C15.7439 15.036 15.7439 15.1067 15.7769 15.1646C15.81 15.2224 15.8712 15.2589 15.9383 15.2608H17.3199L16.7082 16.3937H14.6883C14.6365 16.3922 14.5864 16.4115 14.5493 16.4472C14.5121 16.4829 14.4912 16.5319 14.4912 16.5832C14.4912 16.6344 14.5121 16.6834 14.5493 16.7191C14.5864 16.7548 14.6365 16.7741 14.6883 16.7727H16.6165L16.6411 17.9055L14.1113 17.9055C14.0441 17.9074 13.9829 17.9439 13.9499 18.0018C13.9169 18.0596 13.9169 18.1304 13.9499 18.1882C13.9829 18.2461 14.0442 18.2826 14.1113 18.2845H16.6488L16.6621 18.8954V18.8954C16.6629 18.941 16.6804 18.9847 16.7113 19.0185C16.7423 19.0523 16.7845 19.0739 16.8303 19.0793C16.8761 19.0847 16.9223 19.0734 16.9603 19.0477L17.9255 18.4387L18.8907 17.8291L18.8907 17.8291C18.9153 17.8147 18.9361 17.7949 18.9518 17.7712L18.9525 17.7701L18.9544 17.7672L18.9563 17.7641V17.763L18.958 17.7601V17.7592L18.9591 17.7571L19.2113 17.2901V19.8776L19.2113 19.8775C19.2111 19.9449 19.1839 20.0095 19.1358 20.0572C19.0877 20.1049 19.0223 20.1317 18.9542 20.1319H9.16718C9.09877 20.1315 9.03335 20.1044 8.98516 20.0563C8.93702 20.0083 8.91 19.9433 8.91016 19.8757V8.63745H10.2814C10.451 8.63735 10.6137 8.57072 10.7337 8.45211C10.8537 8.33348 10.9213 8.1726 10.9216 8.00475V6.64746H18.9554C19.0235 6.64776 19.0887 6.67468 19.1368 6.72231C19.185 6.76999 19.2121 6.83452 19.2124 6.9019V11.256C19.1189 11.2905 19.0414 11.3577 18.9945 11.4448L18.6925 12.004V12.0041C18.6471 12.0886 18.6333 12.1862 18.6534 12.2798C18.6736 12.3734 18.7264 12.457 18.8027 12.5159L18.8021 12.516ZM19.7936 13.0462L17.7197 16.8862L17.0625 16.5389L19.1359 12.6987L19.7936 13.0462ZM20.7875 13.5716L19.2438 16.4297C19.2374 16.4394 19.2319 16.4497 19.2274 16.4605L18.7137 17.4121L18.0563 17.064L20.1299 13.2241L20.7872 13.5715L20.7875 13.5716ZM19.8248 11.4234L20.0832 10.9449L20.0832 10.9449C20.1241 10.8696 20.1935 10.8134 20.2762 10.7886C20.3589 10.7637 20.4482 10.7723 20.5245 10.8125L21.6006 11.3813C21.6765 11.4219 21.7331 11.4906 21.7582 11.5723C21.7832 11.6541 21.7746 11.7423 21.7343 11.8179L21.4761 12.2963L19.8248 11.4234ZM10.5464 12.115H17.5772C17.6443 12.1131 17.7055 12.0766 17.7386 12.0187C17.7716 11.9608 17.7716 11.8901 17.7386 11.8323C17.7055 11.7744 17.6443 11.7378 17.5772 11.7359H10.5464C10.4947 11.7345 10.4445 11.7538 10.4074 11.7895C10.3702 11.8252 10.3493 11.8743 10.3493 11.9255C10.3493 11.9767 10.3702 12.0257 10.4074 12.0614C10.4445 12.0971 10.4947 12.1165 10.5464 12.115ZM10.5464 10.4815H17.5772C17.6443 10.4796 17.7055 10.4431 17.7386 10.3852C17.7716 10.3274 17.7716 10.2566 17.7386 10.1988C17.7055 10.1409 17.6443 10.1044 17.5772 10.1025H10.5464C10.4947 10.101 10.4445 10.1203 10.4074 10.156C10.3702 10.1917 10.3493 10.2408 10.3493 10.292C10.3493 10.3432 10.3702 10.3923 10.4074 10.428C10.4445 10.4637 10.4947 10.483 10.5464 10.4815Z" stroke="#8E8E8E" stroke-width="0.467108" mask="url(#path-3-inside-1_2254_490)"/>
  <defs>
    <filter id="filter0_di_2254_490" x="0.249377" y="0.164062" width="28.1712" height="28.1712" filterUnits="userSpaceOnUse" color-interpolation-filters="sRGB">
      <feFlood flood-opacity="0" result="BackgroundImageFix"/>
      <feColorMatrix in="SourceAlpha" type="matrix" values="0 0 0 0 0 0 0 0 0 0 0 0 0 0 0 0 0 0 127 0" result="hardAlpha"/>
      <feOffset dy="0.934217"/>
      <feGaussianBlur stdDeviation="0.467108"/>
      <feComposite in2="hardAlpha" operator="out"/>
      <feColorMatrix type="matrix" values="0 0 0 0 0 0 0 0 0 0 0 0 0 0 0 0 0 0 0.25 0"/>
      <feBlend mode="normal" in2="BackgroundImageFix" result="effect1_dropShadow_2254_490"/>
      <feBlend mode="normal" in="SourceGraphic" in2="effect1_dropShadow_2254_490" result="shape"/>
      <feColorMatrix in="SourceAlpha" type="matrix" values="0 0 0 0 0 0 0 0 0 0 0 0 0 0 0 0 0 0 127 0" result="hardAlpha"/>
      <feOffset dx="0.700663" dy="0.700663"/>
      <feGaussianBlur stdDeviation="2.33554"/>
      <feComposite in2="hardAlpha" operator="arithmetic" k2="-1" k3="1"/>
      <feColorMatrix type="matrix" values="0 0 0 0 0.275 0 0 0 0 0.275 0 0 0 0 0.275 0 0 0 1 0"/>
      <feBlend mode="normal" in2="shape" result="effect2_innerShadow_2254_490"/>
    </filter>
    <linearGradient id="paint0_linear_2254_490" x1="1.65744" y1="-12.4974" x2="27.0443" y2="-12.4437" gradientUnits="userSpaceOnUse">
      <stop stop-color="#FF7246"/>
      <stop offset="0.140039" stop-color="#FFD646"/>
      <stop offset="0.301501" stop-color="#46FFBC"/>
      <stop offset="0.483796" stop-color="#467AFF"/>
      <stop offset="0.681716" stop-color="#9E71FF"/>
      <stop offset="0.837969" stop-color="#FC54FF"/>
    </linearGradient>
  </defs>
</svg>