<svg width="1000" height="594" viewBox="0 0 1000 594" fill="none" xmlns="http://www.w3.org/2000/svg">
<g filter="url(#filter0_d_2289_37)">
<g filter="url(#filter1_di_2289_37)">
<path d="M102.45 158.684C103.166 126.067 129.811 100 162.436 100H837.708C870.368 100 897.029 126.122 897.696 158.774L900 271.547L897.696 384.32C897.029 416.973 870.368 443.095 837.708 443.095H162.454C129.822 443.095 103.174 417.016 102.468 384.392L100 270.322L102.45 158.684Z" fill="url(#paint0_linear_2289_37)"/>
<path d="M162.436 110H837.708C864.925 110 887.142 131.768 887.698 158.979L889.998 271.547L887.698 384.116C887.142 411.326 864.924 433.095 837.708 433.095H162.454C135.261 433.095 113.054 411.362 112.466 384.176L110.002 270.323L112.448 158.903C113.044 131.723 135.249 110 162.436 110Z" stroke="#222F37" stroke-width="20"/>
</g>
<path d="M102.883 412.619H897.114V433.468C897.114 450.037 883.682 463.468 867.114 463.468H132.883C116.314 463.468 102.883 450.037 102.883 433.468V412.619Z" fill="#222F37"/>
<ellipse cx="127.191" cy="436.962" rx="6.38607" ry="4.27488" fill="url(#paint1_radial_2289_37)"/>
<g filter="url(#filter2_i_2289_37)">
<rect x="143.631" y="427.359" width="102.378" height="24.5176" rx="12.2588" fill="#151E23"/>
</g>
<path d="M175.695 434.237C176.101 434.247 176.437 434.4 176.704 434.697C176.981 434.984 177.12 435.33 177.12 435.736V437.606C177.12 437.804 177.08 437.992 177.001 438.17C176.932 438.348 176.828 438.507 176.689 438.645C176.561 438.774 176.407 438.878 176.229 438.957C176.051 439.036 175.858 439.076 175.651 439.076C175.651 439.333 175.601 439.575 175.502 439.803C175.403 440.03 175.27 440.233 175.101 440.411C174.933 440.58 174.73 440.713 174.493 440.812C174.265 440.911 174.023 440.961 173.766 440.961H172.756C172.618 440.961 172.548 441.03 172.548 441.168V443.929C172.548 444.137 172.509 444.33 172.43 444.508C172.36 444.686 172.257 444.839 172.118 444.968C171.989 445.097 171.836 445.195 171.658 445.265C171.48 445.344 171.287 445.383 171.079 445.383C170.673 445.374 170.332 445.22 170.055 444.923C169.788 444.636 169.654 444.29 169.654 443.884V437.176C169.654 436.76 169.793 436.414 170.07 436.137C170.357 435.85 170.708 435.706 171.124 435.706C171.124 435.291 171.262 434.945 171.539 434.667C171.826 434.38 172.177 434.237 172.593 434.237H175.695ZM174.226 436.745C174.226 436.607 174.156 436.538 174.018 436.538H172.756C172.618 436.538 172.548 436.607 172.548 436.745V438.467C172.548 438.596 172.618 438.66 172.756 438.66H174.033C174.161 438.66 174.226 438.596 174.226 438.467V436.745ZM182.181 436.76C182.517 436.76 182.804 436.879 183.041 437.116C183.279 437.344 183.398 437.626 183.398 437.962H183.576C183.912 437.962 184.194 438.081 184.422 438.319C184.659 438.546 184.778 438.828 184.778 439.165V443.87C184.778 444.077 184.738 444.27 184.659 444.448C184.58 444.636 184.471 444.8 184.333 444.938C184.204 445.077 184.046 445.186 183.858 445.265C183.67 445.344 183.472 445.383 183.264 445.383H179.227C179.019 445.383 178.821 445.344 178.633 445.265C178.455 445.186 178.297 445.077 178.158 444.938C178.02 444.8 177.911 444.636 177.832 444.448C177.753 444.27 177.713 444.077 177.713 443.87V438.274C177.713 438.066 177.753 437.868 177.832 437.68C177.911 437.492 178.02 437.334 178.158 437.205C178.297 437.067 178.455 436.958 178.633 436.879C178.821 436.8 179.019 436.76 179.227 436.76H182.181ZM181.706 443.38C181.795 443.38 181.869 443.35 181.928 443.291C181.998 443.221 182.032 443.137 182.032 443.038V439.09C182.032 439.001 181.998 438.927 181.928 438.868C181.869 438.799 181.795 438.764 181.706 438.764H180.785C180.696 438.764 180.617 438.799 180.548 438.868C180.489 438.927 180.459 439.001 180.459 439.09V443.038C180.459 443.137 180.489 443.221 180.548 443.291C180.617 443.35 180.696 443.38 180.785 443.38H181.706ZM195.459 438.126V442.964C195.459 443.301 195.34 443.588 195.103 443.825C194.865 444.053 194.578 444.166 194.242 444.166H194.064C194.064 444.503 193.945 444.79 193.707 445.027C193.47 445.265 193.183 445.383 192.847 445.383H191.719C191.372 445.383 191.075 445.265 190.828 445.027C190.591 444.8 190.462 444.513 190.442 444.166H190.383C190.383 444.503 190.264 444.79 190.027 445.027C189.799 445.265 189.517 445.383 189.181 445.383H188.038C187.86 445.383 187.691 445.349 187.533 445.28C187.385 445.21 187.251 445.116 187.132 444.998C187.014 444.889 186.92 444.755 186.85 444.597C186.791 444.448 186.761 444.285 186.761 444.107H186.643C186.464 444.107 186.296 444.072 186.138 444.003C185.989 443.934 185.856 443.845 185.737 443.736C185.628 443.617 185.539 443.484 185.47 443.335C185.401 443.177 185.366 443.009 185.366 442.831V438.126C185.366 437.73 185.5 437.408 185.767 437.161C185.895 437.032 186.064 436.933 186.271 436.864C186.479 436.785 186.677 436.745 186.865 436.745C187.251 436.745 187.553 436.884 187.771 437.161C187.998 437.428 188.112 437.75 188.112 438.126V443.053C188.112 443.142 188.142 443.221 188.201 443.291C188.27 443.35 188.349 443.38 188.438 443.38H188.706C188.795 443.38 188.869 443.35 188.928 443.291C188.997 443.221 189.032 443.142 189.032 443.053V438.126C189.032 437.75 189.156 437.433 189.403 437.176C189.66 436.919 189.977 436.78 190.353 436.76C190.373 436.76 190.393 436.76 190.412 436.76C190.452 436.74 190.472 436.74 190.472 436.76C190.838 436.78 191.15 436.919 191.407 437.176C191.664 437.433 191.793 437.75 191.793 438.126V443.053C191.793 443.142 191.822 443.221 191.882 443.291C191.951 443.35 192.03 443.38 192.119 443.38H192.386C192.475 443.38 192.55 443.35 192.609 443.291C192.678 443.221 192.713 443.142 192.713 443.053V438.126C192.713 437.938 192.748 437.76 192.817 437.591C192.886 437.423 192.98 437.28 193.099 437.161C193.227 437.032 193.376 436.933 193.544 436.864C193.712 436.785 193.89 436.745 194.078 436.745C194.266 436.745 194.445 436.785 194.613 436.864C194.781 436.933 194.924 437.032 195.043 437.161C195.172 437.28 195.271 437.423 195.34 437.591C195.419 437.76 195.459 437.938 195.459 438.126ZM201.718 436.76C201.916 436.76 202.099 436.8 202.267 436.879C202.435 436.948 202.579 437.047 202.698 437.176C202.826 437.295 202.925 437.438 202.995 437.606C203.074 437.774 203.113 437.953 203.113 438.141V439.654C203.113 439.991 202.995 440.278 202.757 440.515C202.529 440.743 202.247 440.857 201.911 440.857H201.733C201.733 441.193 201.614 441.48 201.377 441.717C201.139 441.955 200.852 442.074 200.516 442.074H199.121C199.032 442.074 198.952 442.108 198.883 442.178C198.824 442.237 198.794 442.311 198.794 442.4V443.053C198.794 443.142 198.824 443.221 198.883 443.291C198.952 443.35 199.032 443.38 199.121 443.38H202.119C202.406 443.38 202.648 443.479 202.846 443.677C203.044 443.875 203.133 444.117 203.113 444.404C203.103 444.681 202.995 444.913 202.787 445.101C202.589 445.289 202.351 445.383 202.074 445.383H197.533C197.117 445.383 196.766 445.24 196.479 444.953C196.192 444.666 196.048 444.315 196.048 443.899V439.165C196.048 438.828 196.162 438.546 196.39 438.319C196.627 438.081 196.914 437.962 197.251 437.962H197.444C197.444 437.626 197.557 437.344 197.785 437.116C198.022 436.879 198.309 436.76 198.646 436.76H201.718ZM200.085 440.07C200.165 440.07 200.229 440.04 200.278 439.981C200.338 439.922 200.367 439.852 200.367 439.773V439.046C200.367 438.858 200.273 438.764 200.085 438.764H199.076C198.997 438.764 198.928 438.794 198.868 438.853C198.819 438.902 198.794 438.967 198.794 439.046V439.773C198.794 439.852 198.819 439.922 198.868 439.981C198.928 440.04 198.997 440.07 199.076 440.07H200.085ZM209.579 437.962C209.915 437.962 210.197 438.081 210.425 438.319C210.662 438.546 210.781 438.828 210.781 439.165V439.699C210.781 439.887 210.741 440.065 210.662 440.233C210.593 440.401 210.494 440.55 210.365 440.679C210.246 440.797 210.103 440.891 209.935 440.961C209.767 441.03 209.583 441.064 209.386 441.064C209.198 441.064 209.019 441.025 208.851 440.946C208.693 440.867 208.549 440.763 208.421 440.634C208.302 440.505 208.208 440.357 208.139 440.189C208.07 440.021 208.035 439.842 208.035 439.654V439.09C208.035 439.001 208 438.927 207.931 438.868C207.872 438.799 207.797 438.764 207.708 438.764H206.788C206.699 438.764 206.62 438.799 206.551 438.868C206.491 438.927 206.462 439.001 206.462 439.09V444.003C206.462 444.191 206.422 444.369 206.343 444.537C206.274 444.716 206.175 444.864 206.046 444.983C205.927 445.111 205.784 445.21 205.616 445.28C205.447 445.349 205.264 445.383 205.066 445.383C204.878 445.383 204.7 445.344 204.532 445.265C204.374 445.186 204.23 445.082 204.102 444.953C203.983 444.824 203.889 444.671 203.82 444.493C203.75 444.325 203.716 444.147 203.716 443.959V439.165C203.716 438.828 203.83 438.546 204.057 438.319C204.295 438.081 204.582 437.962 204.918 437.962H205.111C205.111 437.626 205.225 437.344 205.452 437.116C205.69 436.879 205.977 436.76 206.313 436.76H208.183C208.52 436.76 208.807 436.879 209.044 437.116C209.282 437.344 209.4 437.626 209.4 437.962H209.579Z" fill="#939393"/>
<g filter="url(#filter3_d_2289_37)">
<rect x="256.076" y="427.359" width="102.378" height="24.5176" rx="12.2588" fill="#151E23"/>
</g>
<path d="M289.871 440.545C290.287 440.545 290.633 440.688 290.91 440.975C291.197 441.252 291.341 441.599 291.341 442.014V443.929C291.341 444.137 291.301 444.33 291.222 444.508C291.153 444.686 291.049 444.839 290.91 444.968C290.782 445.097 290.628 445.195 290.45 445.265C290.272 445.344 290.079 445.383 289.871 445.383C289.466 445.374 289.124 445.22 288.847 444.923C288.58 444.636 288.447 444.29 288.447 443.884V441.168C288.447 441.03 288.382 440.961 288.254 440.961H286.977C286.839 440.961 286.769 441.03 286.769 441.168V443.929C286.769 444.137 286.73 444.33 286.651 444.508C286.581 444.686 286.477 444.839 286.339 444.968C286.21 445.097 286.057 445.195 285.879 445.265C285.701 445.344 285.508 445.383 285.3 445.383C284.894 445.374 284.553 445.22 284.276 444.923C284.009 444.636 283.875 444.29 283.875 443.884V437.176C283.875 436.76 284.014 436.414 284.291 436.137C284.578 435.85 284.929 435.706 285.345 435.706C285.345 435.291 285.483 434.945 285.76 434.667C286.047 434.38 286.398 434.237 286.814 434.237H289.916C290.322 434.247 290.658 434.4 290.925 434.697C291.202 434.984 291.341 435.33 291.341 435.736V437.606C291.341 437.804 291.301 437.992 291.222 438.17C291.153 438.348 291.049 438.507 290.91 438.645C290.782 438.774 290.628 438.878 290.45 438.957C290.272 439.036 290.079 439.076 289.871 439.076V440.545ZM288.447 436.745C288.447 436.607 288.377 436.538 288.239 436.538H286.977C286.839 436.538 286.769 436.607 286.769 436.745V438.467C286.769 438.596 286.839 438.66 286.977 438.66H288.254C288.382 438.66 288.447 438.596 288.447 438.467V436.745ZM297.604 436.76C297.802 436.76 297.985 436.8 298.153 436.879C298.321 436.948 298.465 437.047 298.583 437.176C298.712 437.295 298.811 437.438 298.88 437.606C298.959 437.774 298.999 437.953 298.999 438.141V439.654C298.999 439.991 298.88 440.278 298.643 440.515C298.415 440.743 298.133 440.857 297.797 440.857H297.619C297.619 441.193 297.5 441.48 297.262 441.717C297.025 441.955 296.738 442.074 296.401 442.074H295.006C294.917 442.074 294.838 442.108 294.769 442.178C294.709 442.237 294.68 442.311 294.68 442.4V443.053C294.68 443.142 294.709 443.221 294.769 443.291C294.838 443.35 294.917 443.38 295.006 443.38H298.004C298.291 443.38 298.534 443.479 298.732 443.677C298.93 443.875 299.019 444.117 298.999 444.404C298.989 444.681 298.88 444.913 298.672 445.101C298.474 445.289 298.237 445.383 297.96 445.383H293.418C293.003 445.383 292.651 445.24 292.364 444.953C292.077 444.666 291.934 444.315 291.934 443.899V439.165C291.934 438.828 292.048 438.546 292.275 438.319C292.513 438.081 292.8 437.962 293.136 437.962H293.329C293.329 437.626 293.443 437.344 293.67 437.116C293.908 436.879 294.195 436.76 294.531 436.76H297.604ZM295.971 440.07C296.05 440.07 296.115 440.04 296.164 439.981C296.223 439.922 296.253 439.852 296.253 439.773V439.046C296.253 438.858 296.159 438.764 295.971 438.764H294.962C294.883 438.764 294.813 438.794 294.754 438.853C294.704 438.902 294.68 438.967 294.68 439.046V439.773C294.68 439.852 294.704 439.922 294.754 439.981C294.813 440.04 294.883 440.07 294.962 440.07H295.971ZM302.674 438.764C302.595 438.764 302.52 438.794 302.451 438.853C302.392 438.912 302.362 438.987 302.362 439.076V439.743C302.362 439.833 302.392 439.912 302.451 439.981C302.52 440.04 302.595 440.07 302.674 440.07H304.084C304.42 440.07 304.707 440.189 304.945 440.426C305.182 440.654 305.301 440.936 305.301 441.272H305.479C305.815 441.272 306.097 441.391 306.325 441.628C306.562 441.856 306.681 442.138 306.681 442.474V444.122C306.681 444.468 306.557 444.765 306.31 445.012C306.073 445.26 305.781 445.383 305.434 445.383H300.626C300.339 445.383 300.096 445.28 299.898 445.072C299.7 444.874 299.606 444.631 299.616 444.345C299.626 444.067 299.73 443.84 299.928 443.662C300.136 443.474 300.378 443.38 300.655 443.38H303.624C303.713 443.38 303.787 443.35 303.846 443.291C303.906 443.221 303.935 443.142 303.935 443.053V442.385C303.935 442.296 303.906 442.222 303.846 442.163C303.787 442.103 303.713 442.074 303.624 442.074H300.715C300.408 442.074 300.146 441.965 299.928 441.747C299.72 441.529 299.616 441.267 299.616 440.961V439.165C299.616 438.828 299.73 438.546 299.958 438.319C300.195 438.081 300.482 437.962 300.818 437.962H301.011C301.011 437.626 301.125 437.344 301.353 437.116C301.59 436.879 301.877 436.76 302.214 436.76H305.687C305.964 436.76 306.196 436.859 306.384 437.057C306.582 437.245 306.681 437.478 306.681 437.755C306.681 438.032 306.582 438.269 306.384 438.467C306.196 438.665 305.964 438.764 305.687 438.764H302.674ZM312.939 436.76C313.137 436.76 313.32 436.8 313.488 436.879C313.656 436.948 313.799 437.047 313.918 437.176C314.047 437.295 314.146 437.438 314.215 437.606C314.294 437.774 314.334 437.953 314.334 438.141V439.654C314.334 439.991 314.215 440.278 313.978 440.515C313.75 440.743 313.468 440.857 313.132 440.857H312.953C312.953 441.193 312.835 441.48 312.597 441.717C312.36 441.955 312.073 442.074 311.736 442.074H310.341C310.252 442.074 310.173 442.108 310.104 442.178C310.044 442.237 310.015 442.311 310.015 442.4V443.053C310.015 443.142 310.044 443.221 310.104 443.291C310.173 443.35 310.252 443.38 310.341 443.38H313.339C313.626 443.38 313.869 443.479 314.067 443.677C314.265 443.875 314.354 444.117 314.334 444.404C314.324 444.681 314.215 444.913 314.007 445.101C313.809 445.289 313.572 445.383 313.295 445.383H308.753C308.338 445.383 307.986 445.24 307.699 444.953C307.412 444.666 307.269 444.315 307.269 443.899V439.165C307.269 438.828 307.383 438.546 307.61 438.319C307.848 438.081 308.135 437.962 308.471 437.962H308.664C308.664 437.626 308.778 437.344 309.005 437.116C309.243 436.879 309.53 436.76 309.866 436.76H312.939ZM311.306 440.07C311.385 440.07 311.449 440.04 311.499 439.981C311.558 439.922 311.588 439.852 311.588 439.773V439.046C311.588 438.858 311.494 438.764 311.306 438.764H310.297C310.218 438.764 310.148 438.794 310.089 438.853C310.039 438.902 310.015 438.967 310.015 439.046V439.773C310.015 439.852 310.039 439.922 310.089 439.981C310.148 440.04 310.218 440.07 310.297 440.07H311.306ZM319.3 441.807C319.3 442.084 319.226 442.321 319.077 442.519C318.939 442.717 318.785 442.88 318.617 443.009C318.409 443.157 318.177 443.281 317.92 443.38H320.443C320.72 443.38 320.952 443.479 321.14 443.677C321.338 443.865 321.437 444.097 321.437 444.374C321.437 444.661 321.338 444.899 321.14 445.087C320.952 445.285 320.72 445.383 320.443 445.383H317.623C317.326 445.383 317.074 445.275 316.866 445.057C316.658 444.849 316.554 444.597 316.554 444.3V438.764H315.946C315.659 438.764 315.416 438.665 315.218 438.467C315.03 438.269 314.936 438.032 314.936 437.755C314.936 437.478 315.03 437.245 315.218 437.057C315.416 436.859 315.659 436.76 315.946 436.76H316.554V436.122C316.554 435.934 316.589 435.756 316.658 435.588C316.727 435.419 316.821 435.276 316.94 435.157C317.069 435.029 317.217 434.93 317.385 434.86C317.554 434.781 317.732 434.742 317.92 434.742C318.108 434.742 318.286 434.781 318.454 434.86C318.622 434.93 318.766 435.029 318.884 435.157C319.013 435.276 319.112 435.419 319.181 435.588C319.26 435.756 319.3 435.934 319.3 436.122V436.76H320.458C320.735 436.76 320.967 436.859 321.155 437.057C321.353 437.245 321.452 437.478 321.452 437.755C321.452 438.032 321.353 438.269 321.155 438.467C320.967 438.665 320.735 438.764 320.458 438.764H319.3V441.807Z" fill="#939393"/>
<g filter="url(#filter4_dif_2289_37)">
<rect x="694.707" y="431.504" width="139.334" height="18.5695" rx="9.28477" fill="black"/>
</g>
<g style="mix-blend-mode:overlay" filter="url(#filter5_d_2289_37)">
<rect x="851.762" y="430.318" width="30.9196" height="15.2298" rx="5" fill="#1E272D"/>
<rect x="852.262" y="430.818" width="29.9196" height="14.2298" rx="4.5" stroke="#1E272D"/>
</g>
<path d="M858.797 437.28V438.478C858.797 438.937 859.298 439.309 859.916 439.309H860.239V436.449H859.916C859.298 436.449 858.797 436.821 858.797 437.28V437.28Z" fill="#939393"/>
<path d="M861.361 435.489V440.277H863.117L866.917 441.854V433.912L863.117 435.489L861.361 435.489Z" fill="#939393"/>
<path d="M869.48 440.732C871.977 438.755 872.303 437.585 869.48 435.301" stroke="#939393" stroke-linecap="round"/>
<path d="M870.811 440.732C873.307 438.755 873.633 437.585 870.811 435.301" stroke="#939393" stroke-linecap="round"/>
<path d="M872.145 440.732C874.641 438.755 874.967 437.585 872.145 435.301" stroke="#939393" stroke-linecap="round"/>
</g>
<defs>
<filter id="filter0_d_2289_37" x="0" y="0" width="1000" height="563.469" filterUnits="userSpaceOnUse" color-interpolation-filters="sRGB">
<feFlood flood-opacity="0" result="BackgroundImageFix"/>
<feColorMatrix in="SourceAlpha" type="matrix" values="0 0 0 0 0 0 0 0 0 0 0 0 0 0 0 0 0 0 127 0" result="hardAlpha"/>
<feOffset/>
<feGaussianBlur stdDeviation="50"/>
<feComposite in2="hardAlpha" operator="out"/>
<feColorMatrix type="matrix" values="0 0 0 0 0 0 0 0 0 0 0 0 0 0 0 0 0 0 0.5 0"/>
<feBlend mode="normal" in2="BackgroundImageFix" result="effect1_dropShadow_2289_37"/>
<feBlend mode="normal" in="SourceGraphic" in2="effect1_dropShadow_2289_37" result="shape"/>
</filter>
<filter id="filter1_di_2289_37" x="0" y="50" width="1000" height="543.094" filterUnits="userSpaceOnUse" color-interpolation-filters="sRGB">
<feFlood flood-opacity="0" result="BackgroundImageFix"/>
<feColorMatrix in="SourceAlpha" type="matrix" values="0 0 0 0 0 0 0 0 0 0 0 0 0 0 0 0 0 0 127 0" result="hardAlpha"/>
<feOffset dy="50"/>
<feGaussianBlur stdDeviation="50"/>
<feComposite in2="hardAlpha" operator="out"/>
<feColorMatrix type="matrix" values="0 0 0 0 0 0 0 0 0 0 0 0 0 0 0 0 0 0 0.6 0"/>
<feBlend mode="normal" in2="BackgroundImageFix" result="effect1_dropShadow_2289_37"/>
<feBlend mode="normal" in="SourceGraphic" in2="effect1_dropShadow_2289_37" result="shape"/>
<feColorMatrix in="SourceAlpha" type="matrix" values="0 0 0 0 0 0 0 0 0 0 0 0 0 0 0 0 0 0 127 0" result="hardAlpha"/>
<feOffset/>
<feGaussianBlur stdDeviation="35"/>
<feComposite in2="hardAlpha" operator="arithmetic" k2="-1" k3="1"/>
<feColorMatrix type="matrix" values="0 0 0 0 0 0 0 0 0 0 0 0 0 0 0 0 0 0 1 0"/>
<feBlend mode="normal" in2="shape" result="effect2_innerShadow_2289_37"/>
</filter>
<filter id="filter2_i_2289_37" x="143.631" y="427.359" width="102.379" height="24.5176" filterUnits="userSpaceOnUse" color-interpolation-filters="sRGB">
<feFlood flood-opacity="0" result="BackgroundImageFix"/>
<feBlend mode="normal" in="SourceGraphic" in2="BackgroundImageFix" result="shape"/>
<feColorMatrix in="SourceAlpha" type="matrix" values="0 0 0 0 0 0 0 0 0 0 0 0 0 0 0 0 0 0 127 0" result="hardAlpha"/>
<feMorphology radius="1" operator="erode" in="SourceAlpha" result="effect1_innerShadow_2289_37"/>
<feOffset/>
<feGaussianBlur stdDeviation="5"/>
<feComposite in2="hardAlpha" operator="arithmetic" k2="-1" k3="1"/>
<feColorMatrix type="matrix" values="0 0 0 0 0 0 0 0 0 0 0 0 0 0 0 0 0 0 1 0"/>
<feBlend mode="normal" in2="shape" result="effect1_innerShadow_2289_37"/>
</filter>
<filter id="filter3_d_2289_37" x="253.076" y="424.359" width="108.379" height="30.5176" filterUnits="userSpaceOnUse" color-interpolation-filters="sRGB">
<feFlood flood-opacity="0" result="BackgroundImageFix"/>
<feColorMatrix in="SourceAlpha" type="matrix" values="0 0 0 0 0 0 0 0 0 0 0 0 0 0 0 0 0 0 127 0" result="hardAlpha"/>
<feMorphology radius="1" operator="dilate" in="SourceAlpha" result="effect1_dropShadow_2289_37"/>
<feOffset/>
<feGaussianBlur stdDeviation="1"/>
<feComposite in2="hardAlpha" operator="out"/>
<feColorMatrix type="matrix" values="0 0 0 0 0 0 0 0 0 0 0 0 0 0 0 0 0 0 1 0"/>
<feBlend mode="normal" in2="BackgroundImageFix" result="effect1_dropShadow_2289_37"/>
<feBlend mode="normal" in="SourceGraphic" in2="effect1_dropShadow_2289_37" result="shape"/>
</filter>
<filter id="filter4_dif_2289_37" x="690.707" y="427.504" width="147.334" height="26.5703" filterUnits="userSpaceOnUse" color-interpolation-filters="sRGB">
<feFlood flood-opacity="0" result="BackgroundImageFix"/>
<feColorMatrix in="SourceAlpha" type="matrix" values="0 0 0 0 0 0 0 0 0 0 0 0 0 0 0 0 0 0 127 0" result="hardAlpha"/>
<feOffset/>
<feGaussianBlur stdDeviation="2"/>
<feComposite in2="hardAlpha" operator="out"/>
<feColorMatrix type="matrix" values="0 0 0 0 0 0 0 0 0 0 0 0 0 0 0 0 0 0 1 0"/>
<feBlend mode="normal" in2="BackgroundImageFix" result="effect1_dropShadow_2289_37"/>
<feBlend mode="normal" in="SourceGraphic" in2="effect1_dropShadow_2289_37" result="shape"/>
<feColorMatrix in="SourceAlpha" type="matrix" values="0 0 0 0 0 0 0 0 0 0 0 0 0 0 0 0 0 0 127 0" result="hardAlpha"/>
<feMorphology radius="3" operator="erode" in="SourceAlpha" result="effect2_innerShadow_2289_37"/>
<feOffset/>
<feGaussianBlur stdDeviation="10"/>
<feComposite in2="hardAlpha" operator="arithmetic" k2="-1" k3="1"/>
<feColorMatrix type="matrix" values="0 0 0 0 0.0980392 0 0 0 0 0.109804 0 0 0 0 0.121569 0 0 0 1 0"/>
<feBlend mode="normal" in2="shape" result="effect2_innerShadow_2289_37"/>
<feGaussianBlur stdDeviation="1" result="effect3_foregroundBlur_2289_37"/>
</filter>
<filter id="filter5_d_2289_37" x="847.762" y="426.318" width="38.9199" height="23.2305" filterUnits="userSpaceOnUse" color-interpolation-filters="sRGB">
<feFlood flood-opacity="0" result="BackgroundImageFix"/>
<feColorMatrix in="SourceAlpha" type="matrix" values="0 0 0 0 0 0 0 0 0 0 0 0 0 0 0 0 0 0 127 0" result="hardAlpha"/>
<feOffset/>
<feGaussianBlur stdDeviation="2"/>
<feComposite in2="hardAlpha" operator="out"/>
<feColorMatrix type="matrix" values="0 0 0 0 0 0 0 0 0 0 0 0 0 0 0 0 0 0 1 0"/>
<feBlend mode="normal" in2="BackgroundImageFix" result="effect1_dropShadow_2289_37"/>
<feBlend mode="normal" in="SourceGraphic" in2="effect1_dropShadow_2289_37" result="shape"/>
</filter>
<linearGradient id="paint0_linear_2289_37" x1="119.071" y1="271.638" x2="899.856" y2="271.638" gradientUnits="userSpaceOnUse">
<stop stop-color="#A33D15"/>
<stop offset="1" stop-color="#9C8533"/>
</linearGradient>
<radialGradient id="paint1_radial_2289_37" cx="0" cy="0" r="1" gradientUnits="userSpaceOnUse" gradientTransform="translate(127.191 436.962) rotate(90) scale(4.27488 6.38607)">
<stop stop-color="#FF6B00"/>
<stop offset="0.226846" stop-color="#D80606" stop-opacity="0.795838"/>
<stop offset="1" stop-color="#AC0B0B" stop-opacity="0.1"/>
</radialGradient>
</defs>
</svg>
